<?xml version="1.0" encoding="UTF-8" standalone="no"?>
<!-- Created with Inkscape (http://www.inkscape.org/) -->

<svg
   xmlns:dc="http://purl.org/dc/elements/1.1/"
   xmlns:cc="http://creativecommons.org/ns#"
   xmlns:rdf="http://www.w3.org/1999/02/22-rdf-syntax-ns#"
   xmlns:svg="http://www.w3.org/2000/svg"
   xmlns="http://www.w3.org/2000/svg"
   xmlns:sodipodi="http://sodipodi.sourceforge.net/DTD/sodipodi-0.dtd"
   xmlns:inkscape="http://www.inkscape.org/namespaces/inkscape"
   width="210mm"
   height="297mm"
   id="svg296"
   version="1.1"
   inkscape:version="0.48+devel r10001"
   sodipodi:docname="faber.svg">
  <defs
     id="defs298" />
  <sodipodi:namedview
     id="base"
     pagecolor="#ffffff"
     bordercolor="#666666"
     borderopacity="1.0"
     inkscape:pageopacity="0.0"
     inkscape:pageshadow="2"
     inkscape:zoom="0.49497475"
     inkscape:cx="154.25257"
     inkscape:cy="238.79034"
     inkscape:document-units="px"
     inkscape:current-layer="layer1"
     showgrid="false"
     inkscape:window-width="1920"
     inkscape:window-height="946"
     inkscape:window-x="0"
     inkscape:window-y="0"
     inkscape:window-maximized="0"
     showguides="true"
     inkscape:guide-bbox="true">
    <sodipodi:guide
       orientation="0,1"
       position="1252.5892,113.13709"
       id="guide552" />
    <sodipodi:guide
       orientation="0,1"
       position="1259.6602,-11.111678"
       id="guide554" />
  </sodipodi:namedview>
  <metadata
     id="metadata301">
    <rdf:RDF>
      <cc:Work
         rdf:about="">
        <dc:format>image/svg+xml</dc:format>
        <dc:type
           rdf:resource="http://purl.org/dc/dcmitype/StillImage" />
        <dc:title></dc:title>
      </cc:Work>
    </rdf:RDF>
  </metadata>
  <g
     inkscape:label="Calque 1"
     inkscape:groupmode="layer"
     id="layer1">
    <path
       style="fill:#000000;fill-opacity:1;stroke:none"
       d="m -484.84375,255.05473 -73.0625,0.094 0,125.5313 73.2187,0 c 34.4834,-0.237 62.375,-28.2735 62.375,-62.8126 0,-34.5913 -27.9756,-62.6595 -62.5312,-62.8124 z m -44,28.0937 44.1562,0 c 18.9925,0.2358 34.3126,15.6705 34.3126,34.7187 0,19.1007 -15.4043,34.5977 -34.4688,34.75 l -43.96875,0.031 z"
       id="path150"
       inkscape:connector-curvature="0"
       sodipodi:nodetypes="ccccscccsccc" />
    <path
       sodipodi:nodetypes="ccccccsccccccccccccc"
       id="path3081"
       d="m 379.44875,441.62123 0,125.1613 29.1562,0 0,-31.0049 51.0313,0 0,-0.031 c 25.986,-0.017 47.0312,-21.0725 47.0312,-47.0625 0,-26.0005 -21.062,-47.0629 -47.0625,-47.0629 l -51.0625,0 -29.0937,0 0,0 z m 97.1875,47.0626 c 0,9.4044 -7.6269,17.0313 -17.0313,17.0313 l -51.0312,0.062 -0.031,-34.0313 51.0937,0 c 10.3089,0.5421 15.4336,7.2177 17,16.9375 l 0,0 z"
       style="fill:#000000;fill-opacity:1;stroke:none"
       inkscape:connector-curvature="0" />
    <path
       sodipodi:nodetypes="ccccccccccccccc"
       inkscape:connector-curvature="0"
       id="path142"
       d="m -523.15005,39.121733 0,126.437497 29.0937,0 0,-27.3125 52.4063,-0.031 23.8437,27.3437 21.0625,0 0,-21.7813 -96.5,-104.656197 -1.3125,0 z m 29.0937,40.75 26.25,29.249997 -26.25,0 z"
       style="fill:#000000;fill-opacity:1;stroke:none" />
    <path
       id="path144"
       d="m -344.49245,60.094233 0,33.125 0,92.062497 0,33.125 29.0937,0 0,-0.062 51.0625,0.062 c 26.0004,0 47.0626,-21.0934 47.0626,-47.0938 0,-12.3819 -4.782,-23.6618 -12.5938,-32.0624 7.8118,-8.4007 12.5938,-19.6806 12.5938,-32.0626 0,-26.000297 -21.0622,-47.093697 -47.0626,-47.093697 l -51.0625,0.062 0,-0.062 -29.0937,0 z m 29.0937,30.1563 51.0938,0 c 10.3088,0.542 15.4335,7.2177 17,16.937397 0,9.394 -7.61,17.0144 -17,17.0313 -0.011,0 -0.021,0 -0.031,0 l -51.0001,0 0,-30.999997 -0.062,0 0,-2.9687 z m 0.062,64.031197 51.0001,0 0.031,0 c 9.39,0.017 17,7.6373 17,17.0312 -1.5665,9.7198 -6.6912,16.3955 -17,16.9376 l -51.0938,0 0,-2.9688 0.062,0 0,-31 z"
       style="fill:#000000;fill-opacity:1;stroke:none"
       inkscape:connector-curvature="0" />
    <path
       style="fill:#000000;fill-opacity:1;stroke:none"
       d="m -130.51665,85.353033 c -34.5557,0.153 -62.5313,28.221097 -62.5313,62.812497 0,34.5391 27.8917,62.5759 62.375,62.8128 l 73.212,0 0,-27.9999 -73.0557,-0.062 c -19.0646,-0.1523 -34.4688,-15.6493 -34.4688,-34.75 0,-19.0483 15.3201,-34.4983 34.3125,-34.7341 l 73.212,0 0,-27.984297 z"
       id="path146"
       inkscape:connector-curvature="0"
       sodipodi:nodetypes="csccccscccc" />
    <path
       id="path153"
       d="m -411.36225,256.49093 0,124.125 29.0937,0 106.7813,0 0,-29.0938 -106.7813,0 0,-18.4375 106.7813,0 0,-29.0625 -106.7813,0 0,-18.4375 106.7813,0 0,-29.0937 -106.7813,0 -29.0937,0 z"
       style="fill:#000000;fill-opacity:1;stroke:none"
       inkscape:connector-curvature="0" />
    <path
       inkscape:connector-curvature="0"
       style="fill:#000000;fill-opacity:1;stroke:none"
       d="m -237.13565,263.71183 0,124.125 29.0937,0 0,-47.5 106.7813,0 0,-29.0939 -106.7813,0 0,-18.4374 106.7813,0 0,-29.0938 -135.875,0 z"
       id="path156" />
    <path
       sodipodi:nodetypes="csccccccccscccc"
       inkscape:connector-curvature="0"
       id="path158"
       d="m -19.35545,260.72553 c -34.5557,0.1529 -62.5312,28.1744 -62.5312,62.7659 0,34.5391 27.8916,62.5755 62.375,62.8123 l 73.1875,0 0.062,-79.3752 -76.4063,0.062 0,29.0937 47.3125,0 0,22.1876 -44,-0.031 c -19.0645,-0.1524 -34.4687,-15.6494 -34.4687,-34.75 0,-19.0484 15.3201,-34.5141 34.3125,-34.75 l 73.1875,0 0,-28.0153 z"
       style="fill:#000000;fill-opacity:1;stroke:none" />
    <path
       sodipodi:nodetypes="ccccccccccccc"
       inkscape:connector-curvature="0"
       id="path160"
       d="m 59.34505,261.99333 0,124.125 29.0938,0 0,-47.5313 77.6875,0 0,47.5313 29.0937,0 0,-124.125 -29.0937,0 0,47.5313 -77.6875,0 0,-47.5313 z"
       style="fill:#000000;fill-opacity:1;stroke:none" />
    <path
       style="fill:#000000;fill-opacity:1;stroke:none"
       d="m -524.21609,436.88383 0,124.1241 29.14773,0 -0.056,-124.1241 -29.09149,0 z"
       id="path162"
       inkscape:connector-curvature="0"
       sodipodi:nodetypes="ccccc" />
    <path
       style="fill:#000000;fill-opacity:1;stroke:none"
       d="m -482.23335,501.90933 c 0.1529,34.5557 28.221,62.5313 62.8125,62.5313 34.5391,0 62.5444,-27.8917 62.7812,-62.375 l 0.063,-61.1913 -28.0313,0 -0.062,61.035 c -0.1524,19.0646 -15.6494,34.4688 -34.75,34.4688 -19.0484,0 -34.4983,-15.3201 -34.7342,-34.3125 z"
       id="path164"
       inkscape:connector-curvature="0"
       sodipodi:nodetypes="csccccscc" />
    <path
       sodipodi:nodetypes="ccccccc"
       id="path170"
       d="m 435.62785,289.04323 74.25,82.6875 1.0625,0 0,-40.7812 -74.5,-82.6563 -1.3125,0 z"
       style="fill:#000000;fill-opacity:1;stroke:none"
       inkscape:connector-curvature="0" />
    <path
       sodipodi:nodetypes="ccccccc"
       inkscape:connector-curvature="0"
       id="path177"
       d="m -194.77745,441.65513 0,124.1242 135.8776,0 0,-29.0915 -106.7861,0 0,-95.0327 z"
       style="fill:#000000;fill-opacity:1;stroke:none" />
    <path
       style="fill:#000000;fill-opacity:1;stroke:none"
       d="m -54.76465,442.80133 0,123.4265 29.0914,0 0,-82.6682 37.1522,41.3038 0.3333,0.3939 0.3637,-0.3636 40.3037,-41.728 0,83.0621 29.0915,0 0,-123.4265 -28.9097,0 -1.3333,0 -39.4856,40.8492 -36.7279,-40.8492 -1.3031,0 -28.5762,0 z"
       id="path179"
       inkscape:connector-curvature="0" />
    <path
       sodipodi:nodetypes="ccccccccccccc"
       id="path181"
       d="m 92.14745,443.35663 0,123.4375 29.0937,0 0,-82.6875 74.25,82.6875 1.3125,0 28.5938,0 0,-123.4375 -29.0938,0 0,82.6563 -74.25,-82.6563 -1.3125,0 -28.5937,0 z"
       style="fill:#000000;fill-opacity:1;stroke:none"
       inkscape:connector-curvature="0" />
    <path
       inkscape:connector-curvature="0"
       style="fill:#000000;fill-opacity:1;stroke:none"
       d="m 301.48125,438.90663 c -34.6862,0 -62.7813,28.1263 -62.7813,62.8125 0,34.6862 28.0951,62.8125 62.7813,62.8125 34.6861,0 62.8125,-28.1263 62.8125,-62.8125 0,-34.6862 -28.1264,-62.8125 -62.8125,-62.8125 z m 0,28.0625 c 19.1952,0 34.7812,15.5547 34.7812,34.75 0,19.1953 -15.586,34.75 -34.7812,34.75 -19.1953,0 -34.75,-15.5547 -34.75,-34.75 0,-19.1953 15.5547,-34.75 34.75,-34.75 z"
       id="path183" />
    <path
       inkscape:connector-curvature="0"
       style="fill:#000000;fill-opacity:1;stroke:none"
       d="m 578.65625,440.64843 c -34.6862,0 -62.7812,28.1263 -62.7812,62.8125 0,34.6862 28.095,62.8125 62.7812,62.8125 9.8809,0 19.2448,-2.2775 27.5625,-6.3437 l 40.8437,45.5 1.0626,0 0,-40.7813 -20.125,-22.3125 c 8.4341,-10.6929 13.4687,-24.2015 13.4687,-38.875 0,-34.6862 -28.1264,-62.8125 -62.8125,-62.8125 z m 0,28.0625 c 19.1952,0 34.7813,15.5547 34.7812,34.75 0,6.3669 -1.7263,12.3377 -4.7187,17.4688 l -35.0937,-38.9376 -1.3126,0 0.5,40.75 13.1876,14.6876 c -2.3633,0.5068 -4.8298,0.7812 -7.3438,0.7812 -19.1953,0 -34.75,-15.5547 -34.75,-34.75 0,-19.1953 15.5547,-34.75 34.75,-34.75 z"
       id="path196" />
    <path
       id="path202"
       d="m 664.69025,444.68833 0,125.2188 29.1562,0 0,-31.0313 41.8126,0 24.1562,31.1876 33.4688,0 -27.875,-35.9063 c 15.6966,-7.6273 26.5,-23.7442 26.5,-42.375 0,-26.0004 -21.0621,-47.0938 -47.0625,-47.0938 l -51.0626,0.062 0,-0.062 -29.0937,0 z m 29.0937,30.1563 51.0938,0 c 10.3088,0.5421 15.4335,7.2178 17,16.9375 0,9.4045 -7.6268,17.0313 -17.0312,17.0313 l -51.0313,0.062 -0.031,-34.0312 z"
       style="fill:#000000;fill-opacity:1;stroke:none"
       inkscape:connector-curvature="0" />
    <path
       sodipodi:nodetypes="cscccccccsccccccc"
       inkscape:connector-curvature="0"
       id="path204"
       d="m 856.24275,425.65763 c -26.0002,0 -47.0625,21.0935 -47.0625,47.0938 0,25.99 21.0453,47.0611 47.0312,47.0781 l 52.5313,0.016 c 9.4038,0.098 17.067,7.4387 17.0312,17.0313 -0.036,9.5925 -6.6913,16.3955 -17,16.9374 l -87.0624,0 -0.031,30.0938 87.0624,0.062 c 26.0002,0 47.0625,-21.0935 47.0625,-47.0937 0,-25.9901 -21.0452,-47.0455 -47.0313,-47.0626 l -52.5312,0 c -9.4042,0 -17.067,-7.4699 -17.0312,-17.0624 0.036,-9.5926 6.6913,-16.3956 17,-16.9376 l 87.0624,0 0.031,-30.0937 z"
       style="fill:#000000;fill-opacity:1;stroke:none" />
    <path
       inkscape:connector-curvature="0"
       style="fill:#000000;fill-opacity:1;stroke:none"
       d="m -327.18755,437.83593 0,123.4375 28.5938,0 1.3125,0 21.25,-23.5625 73.8437,82.2188 1.0626,0 0,-40.7813 -56.125,-62.2813 34.4687,-38.25 0,-40.7812 -1.0625,0 -52.6562,58.6562 -0.4376,0 0,0.4688 -21.1562,23.5625 0,-82.6875 -29.0938,0 z"
       id="path206" />
    <path
       style="fill:#000000;fill-opacity:1;stroke:none"
       d="m -524.57905,617.84753 0,29.0625 54.9278,0 0,95.0625 0.2187,0 28.875,0 0.2188,0 0,-95.0625 53.9306,0 0,-29.0625 -54.1494,0 -28.875,0 z"
       id="path213"
       inkscape:connector-curvature="0"
       sodipodi:nodetypes="ccccccccccccc" />
    <path
       style="fill:#000000;fill-opacity:1;stroke:none"
       d="m -277.16965,619.76153 0,63.4225 c -1.6017,21.1378 -15.0071,31.3017 -34.75,34.4688 -19.0797,0 -34.5642,-15.4331 -34.75,-34.4688 l 0.062,-63.4225 -28.2188,0 0,63.4225 c 0.1864,34.5268 28.3357,62.5313 62.9063,62.5313 34.5915,0 62.6596,-27.9756 62.8125,-62.5313 l 0,-63.4225 -28.0625,0 z"
       id="path215"
       sodipodi:nodetypes="cccccccsccc"
       inkscape:connector-curvature="0" />
    <path
       sodipodi:nodetypes="cccccccccc"
       id="path218"
       d="m -230.31685,745.11463 0,-123.4375 29.0937,0 0,82.6875 74.25,-82.6875 1.0625,0 0,40.7812 -74.5,82.6563 -1.3125,0 z"
       style="fill:#000000;fill-opacity:1;stroke:none"
       inkscape:connector-curvature="0" />
    <path
       sodipodi:nodetypes="ccccccccccccccccc"
       inkscape:connector-curvature="0"
       id="path220"
       d="m -112.68245,625.65833 0,123.4375 28.5938,0 1.3124,0 73.5938,-81.6562 0,81.6562 28.5938,0 1.3124,0 74.5,-82.6562 0,-40.7813 -1.0624,0 -74.25,82.6875 0,-82.6875 -29.25,0 -74.25,82.6875 0,-82.6875 z"
       style="fill:#000000;fill-opacity:1;stroke:none" />
    <path
       style="fill:#000000;fill-opacity:1;stroke:none"
       d="m 101.12505,627.30473 0.5,40.75 18.5937,20.7187 -19.0937,21.1875 0,40.7812 1.0624,0 36.8438,-41.0312 36.8438,41.0312 1.0624,0 0,-40.7812 -19.0937,-21.1875 18.5937,-20.7187 0.5,-40.75 -1.3124,0 -36.5938,40.5937 -36.5938,-40.5937 -1.3124,0 z"
       id="path223"
       inkscape:connector-curvature="0" />
    <path
       inkscape:connector-curvature="0"
       style="fill:#000000;fill-opacity:1;stroke:none"
       d="m 179.50005,605.02343 0.5,40.75 52.9062,58.9063 -28.0938,46.5 39.3126,0 69.9062,-116.6563 -38.75,0 -27.25,45.0937 -67.2188,-74.5937 -1.3124,0 z"
       id="path225" />
    <path
       style="fill:#000000;fill-opacity:1;stroke:none"
       d="m 335.56245,635.21093 0,29.0938 72.1563,0 -52.8125,87.4062 123.875,-0.062 0,-29.1563 -67.0938,0.031 52.4376,-87.4687 z"
       id="path227"
       inkscape:connector-curvature="0"
       sodipodi:nodetypes="ccccccccc" />
    <path
       inkscape:connector-curvature="0"
       style="fill:#000000;fill-opacity:1;stroke:none"
       d="m 622.68401,289.61682 -74.25,82.6875 -1.0625,0 0,-40.7812 74.5,-82.6563 1.3125,0 z"
       id="path232"
       sodipodi:nodetypes="ccccccc" />
    <path
       style="fill:#000000;fill-opacity:1;stroke:none"
       d="m 288.90895,370.50583 124.1241,0 0,-29.1477 -124.1241,0.056 0,29.0915 z"
       id="path241"
       inkscape:connector-curvature="0"
       sodipodi:nodetypes="ccccc" />
    <path
       style="fill:#000000;fill-opacity:1;stroke:none"
       d="m -198.21965,883.99653 -34.0626,43.9063 33.4688,0 34,-43.9063 -33.4062,0 z"
       id="path254"
       inkscape:connector-curvature="0" />
    <path
       style="fill:#000000;fill-opacity:1;stroke:none"
       d="m -266.48535,939.93403 0,124.12497 29.0937,0 106.7813,0 0,-29.0938 -106.7813,0 0,-18.4374 106.7813,0 0,-29.06257 -106.7813,0 0,-18.4374 106.7813,0 0,-29.0938 -106.7813,0 -29.0937,0 z"
       id="path250"
       inkscape:connector-curvature="0" />
    <path
       id="path257"
       d="m 97.82505,883.92543 -34.0626,43.9063 33.4688,0 34,-43.9063 -33.4062,0 z"
       style="fill:#000000;fill-opacity:1;stroke:none"
       inkscape:connector-curvature="0" />
    <path
       style="fill:#000000;fill-opacity:1;stroke:none"
       d="m -110.38345,939.89893 0,123.96257 29.0937,0 0,-24.8376 52.4063,-0.031 23.8437,24.8688 21.0625,0 0,-19.3064 -96.5,-104.65617 -1.3125,0 z m 29.0937,40.75 26.25,29.24997 -26.25,0 z"
       id="path259"
       inkscape:connector-curvature="0"
       sodipodi:nodetypes="ccccccccccccccc" />
    <path
       inkscape:connector-curvature="0"
       id="path270"
       d="m -75.71965,883.99653 -34.0626,43.9063 33.4688,0 34,-43.9063 -33.4062,0 z"
       style="fill:#000000;fill-opacity:1;stroke:none" />
    <path
       inkscape:connector-curvature="0"
       style="fill:#000000;fill-opacity:1;stroke:none"
       d="m -386.53125,939.36713 c -34.5557,0.153 -62.5313,28.2211 -62.5313,62.81257 0,34.539 27.8917,62.5756 62.375,62.8124 l 4.9688,0 -33.2812,42.9063 33.4687,0 33.2187,-42.9063 34.8438,0 0,-28 -73.0625,-0.062 c -19.0646,-0.1524 -34.4687,-15.6494 -34.4687,-34.75 0,-19.04827 15.32,-34.51427 34.3124,-34.74997 l 73.2188,0 0,-27.9688 -73.0625,-0.094 z"
       id="path272" />
    <path
       id="path277"
       d="m 97.48125,939.90663 c -34.6862,0 -62.7813,28.1263 -62.7813,62.81247 0,34.6862 28.0951,62.8125 62.7813,62.8125 34.6861,0 62.8125,-28.1263 62.8125,-62.8125 0,-34.68617 -28.1264,-62.81247 -62.8125,-62.81247 z m 0,28.0625 c 19.1952,0 34.7812,15.5547 34.7812,34.74997 0,19.1953 -15.586,34.75 -34.7812,34.75 -19.1953,0 -34.75,-15.5547 -34.75,-34.75 0,-19.19527 15.5547,-34.74997 34.75,-34.74997 z"
       style="fill:#000000;fill-opacity:1;stroke:none"
       inkscape:connector-curvature="0" />
    <g
       transform="translate(-1494.4688,-2842.4141)"
       id="g285">
      <path
         style="fill:#000000;fill-opacity:1;stroke:none"
         d="m 1780.2991,3782.1756 0,63.4225 c -1.6017,21.1378 -15.0071,31.3017 -34.75,34.4688 -19.0797,0 -34.5642,-15.4331 -34.75,-34.4688 l 0.062,-63.4225 -28.2188,0 0,63.4225 c 0.1864,34.5268 28.3357,62.5313 62.9063,62.5313 34.5915,0 62.6596,-27.9756 62.8125,-62.5313 l 0,-63.4225 -28.0625,0 z"
         id="path279"
         sodipodi:nodetypes="cccccccsccc"
         inkscape:connector-curvature="0" />
      <path
         id="path281"
         d="m 1745.8299,3726.3395 -34.0626,43.9063 33.4688,0 34,-43.9063 -33.4062,0 z"
         style="fill:#000000;fill-opacity:1;stroke:none"
         inkscape:connector-curvature="0" />
    </g>
    <path
       inkscape:connector-curvature="0"
       style="fill:#000000;fill-opacity:1;stroke:none"
       d="m 754.68745,939.96093 0,10.5625 c -9.9214,-6.5601 -21.8112,-10.4063 -34.5937,-10.4063 -34.6862,0 -62.7813,28.1263 -62.7813,62.81257 0,34.6862 28.0951,62.8124 62.7813,62.8124 12.7813,0 24.6729,-3.816 34.5937,-10.375 l 0,8.7188 29.0938,0 106.7812,0 0,-29.0938 -106.7812,0 0,-18.4374 106.7812,0 0,-29.06257 -106.7812,0 0,-18.4374 106.7812,0 0,-29.0938 -106.7812,0 -29.0938,0 z m -34.5937,28.2188 c 17.9955,0 32.8111,13.6934 34.5937,31.2187 l 0,7.09367 c -1.7826,17.5254 -16.5982,31.1876 -34.5937,31.1876 -19.1953,0 -34.75,-15.5548 -34.75,-34.75 0,-19.19527 15.5547,-34.75007 34.75,-34.74997 z"
       id="path283" />
    <g
       id="g289"
       transform="matrix(-1,0,0,1,2293.5194,-2841.8283)">
      <path
         inkscape:connector-curvature="0"
         sodipodi:nodetypes="cccccccsccc"
         id="path291"
         d="m 1780.2991,3782.1756 0,63.4225 c -1.6017,21.1378 -15.0071,31.3017 -34.75,34.4688 -19.0797,0 -34.5642,-15.4331 -34.75,-34.4688 l 0.062,-63.4225 -28.2188,0 0,63.4225 c 0.1864,34.5268 28.3357,62.5313 62.9063,62.5313 34.5915,0 62.6596,-27.9756 62.8125,-62.5313 l 0,-63.4225 -28.0625,0 z"
         style="fill:#000000;fill-opacity:1;stroke:none" />
      <path
         inkscape:connector-curvature="0"
         style="fill:#000000;fill-opacity:1;stroke:none"
         d="m 1745.8299,3726.3395 -34.0626,43.9063 33.4688,0 34,-43.9063 -33.4062,0 z"
         id="path293" />
    </g>
    <path
       inkscape:connector-curvature="0"
       style="fill:#000000;fill-opacity:1;stroke:none"
       d="m 1181.5001,939.64843 0,0.031 -0.4688,0 -74.25,83.18737 0,-83.18737 -29.0938,0 0,0.1562 -52.25,0 -28.87505,0 -55.1562,0 0,29.0625 54.9375,0 0,95.06247 0.2187,0 28.87505,0 0.2188,0 0,-95.06247 52.0312,0 0,95.06247 28.5938,0 1.3125,0 73.9063,-82.34377 0,82.24997 29.0937,0 0,-24.8437 52.4063,-0.031 23.8437,24.875 21.0625,0 0,-19.3124 -96.5,-104.90627 -1.3125,0 -28.5937,0 z m 29.0937,41 26.25,29.24997 -26.25,0 0,-29.24997 z"
       id="path298" />
    <path
       sodipodi:nodetypes="ccccc"
       inkscape:connector-curvature="0"
       id="path305"
       d="m 187.46045,855.17383 33.6241,0 0,-29.1477 -33.6241,0.056 0,29.0915 z"
       style="fill:#000000;fill-opacity:1;stroke:none" />
    <path
       inkscape:connector-curvature="0"
       sodipodi:nodetypes="cccccccsccc"
       id="path307"
       d="m 427.10865,939.25243 0,63.42247 c -1.6017,21.1378 -15.0071,31.3017 -34.75,34.4688 -19.0797,0 -34.5642,-15.4331 -34.75,-34.4688 l 0.062,-63.42247 -28.2188,0 0,63.42247 c 0.1864,34.5268 28.3357,62.5313 62.9063,62.5313 34.5915,0 62.6596,-27.9756 62.8125,-62.5313 l 0,-63.42247 -28.0625,0 z"
       style="fill:#000000;fill-opacity:1;stroke:none" />
    <g
       id="g313"
       transform="translate(-1436.3159,-3027.7974)">
      <path
         sodipodi:nodetypes="ccccc"
         inkscape:connector-curvature="0"
         id="path309"
         d="m 1782.3384,3955.6819 33.6241,0 0,-29.1477 -33.6241,0.056 0,29.0915 z"
         style="fill:#000000;fill-opacity:1;stroke:none" />
      <path
         style="fill:#000000;fill-opacity:1;stroke:none"
         d="m 1841.2917,3955.6819 33.6241,0 0,-29.1477 -33.6241,0.056 0,29.0915 z"
         id="path311"
         inkscape:connector-curvature="0"
         sodipodi:nodetypes="ccccc" />
    </g>
    <path
       inkscape:connector-curvature="0"
       id="path1172"
       d="m 648.18925,751.96333 69.9198,-116.6623 -38.75,0 -70.4822,116.6623 z"
       style="fill:#000000;fill-opacity:1;stroke:none"
       sodipodi:nodetypes="ccccc" />
    <path
       sodipodi:nodetypes="ccccc"
       style="fill:#000000;fill-opacity:1;stroke:none"
       d="m 678.79665,751.96333 -69.9198,-116.6623 38.75,0 70.4822,116.6623 z"
       id="path1174"
       inkscape:connector-curvature="0" />
    <path
       style="fill:#000000;fill-opacity:1;stroke:none"
       d="m 491.13885,635.31923 35.0937,58.5624 -35.0937,58.0938 39.3125,0 15.3125,-25.5312 15.2813,25.5312 39.3124,0 -35.0937,-58.0938 35.0937,-58.5624 -38.75,0 -15.8437,26.25 -15.875,-26.25 -38.75,0 z"
       id="path1176"
       inkscape:connector-curvature="0" />
    <path
       style="fill:#000000;fill-opacity:1;stroke:none"
       d="m 732.87505,635.80473 35.0937,58.5624 -35.0937,58.0938 39.3124,0 69.9063,-116.6562 -38.75,0 -15.875,26.25 -15.8437,-26.25 z"
       id="path1181"
       inkscape:connector-curvature="0"
       sodipodi:nodetypes="ccccccccc" />
    <path
       sodipodi:nodetypes="ccccccccc"
       inkscape:connector-curvature="0"
       id="path1186"
       d="m 889.59375,752.46093 -35.0937,-58.5624 35.0937,-58.0938 -39.3124,0 -69.9063,116.6562 38.75,0 15.875,-26.25 15.8437,26.25 z"
       style="fill:#000000;fill-opacity:1;stroke:none" />
    <path
       style="fill:#000000;fill-opacity:1;stroke:none"
       d="m -569.60461,-204.12503 -51.0312,0.062 0,30.0938 51.0625,0 c 10.3088,0.542 15.4335,7.2178 17,16.9375 0,9.394 -7.61,17.0143 -17,17.0313 l -0.031,0 -51.0312,0 0,30.0624 51.0312,0 0.031,0 c 9.39,0.017 17,7.6374 17,17.031297 -1.5665,9.7198 -6.6912,16.3954 -17,16.9375 l -51.0625,0 0,30.0938 51.0312,0.062 c 26.0005,0 47.0626,-21.0933 47.0626,-47.0937 0,-12.381897 -4.782,-23.661897 -12.5938,-32.062497 7.8118,-8.4007 12.5937,-19.6805 12.5938,-32.0625 0,-26.0003 -21.0622,-47.0938 -47.0626,-47.0937 z"
       id="path207"
       inkscape:connector-curvature="0"
       sodipodi:nodetypes="ccccccccccccccccscsc" />
    <path
       id="path222"
       d="m -885.42461,-183.03553 c -34.6862,0 -62.7813,28.1263 -62.7813,62.8125 0,34.686197 28.0951,62.812497 62.7813,62.812497 34.6861,0 62.8125,-28.1263 62.8125,-62.812497 0,-34.6862 -28.1264,-62.8125 -62.8125,-62.8125 z m 0,28.0625 c 19.1952,0 34.7812,15.5548 34.7812,34.75 0,19.1953 -15.586,34.749997 -34.7812,34.749997 -19.1953,0 -34.75,-15.554697 -34.75,-34.749997 0,-19.1952 15.5547,-34.75 34.75,-34.75 z"
       style="fill:#000000;fill-opacity:1;stroke:none"
       inkscape:connector-curvature="0" />
    <path
       style="fill:#000000;fill-opacity:1;stroke:none"
       d="m -800.35581,-189.56883 0,124.124097 29.1477,0 -0.056,-124.124097 -29.0915,0 z"
       id="path231"
       inkscape:connector-curvature="0"
       sodipodi:nodetypes="ccccc" />
    <path
       style="fill:#000000;fill-opacity:1;stroke:none"
       d="m -684.82871,-196.63233 -63.7905,0.062 0.031,30.0938 63.7904,0 c 10.3087,0.542 16.964,7.3449 17,16.9375 0.036,9.5926 -7.627,17.0313 -17.0312,17.0313 l -17.0626,0.062 -15.8437,14.1563 -0.031,0 -35.6562,32.124997 0,29.5 123.4375,0 0,-29.5 -82.6875,0 18.5938,-16.281297 9.2812,0 0,-0.031 c 25.986,-0.017 47.0312,-21.0724 47.0312,-47.0625 0,-26.0003 -21.0623,-47.0938 -47.0624,-47.0937 z"
       id="path237"
       inkscape:connector-curvature="0"
       sodipodi:nodetypes="ccccsccccccccccccscc" />
    <path
       style="fill:#000000;fill-opacity:1;stroke:none"
       d="m -455.92251,-195.47613 -51.9375,70.6562 0,29.499997 94.5313,0 0,41.1876 29.1562,0 -0.062,-124.124997 -29.0937,0 0,53.4374 -53.7813,0 52.5,-70.6562 -41.3125,0 z"
       id="path251"
       inkscape:connector-curvature="0" />
    <path
       sodipodi:nodetypes="ccccsccccccccccccscc"
       inkscape:connector-curvature="0"
       id="path256"
       d="m -299.82871,-48.665033 -71.0626,-0.062 0.031,-30.0938 71.0625,0 c 10.3087,-0.542 16.964,-7.3449 17,-16.9375 0.036,-9.592597 -7.627,-17.031297 -17.0312,-17.031297 l -17.0626,-0.062 -15.8437,-14.1563 -0.031,0 -35.6562,-32.125 0,-29.5 123.4375,0 0,29.5 -82.6875,0 18.5938,16.2813 9.2812,0 0,0.031 c 25.986,0.017 47.0312,21.0724 47.0312,47.062497 0,26.0003 -21.0623,47.0938 -47.0624,47.0937 z"
       style="fill:#000000;fill-opacity:1;stroke:none" />
    <path
       sodipodi:nodetypes="cscsccscccccczcccczccczcczcc"
       inkscape:connector-curvature="0"
       id="path258"
       d="m 93.290993,-198.03373 c -26.0004,-1e-4 -47.0625,21.0934 -47.0625,47.0938 10e-5,12.382 4.782,23.6617 12.5937,32.0624 -7.8118,8.4006 -12.5937,19.680697 -12.5937,32.062597 0,26.0004 21.062,47.0937 47.0625,47.0937 l 41.531197,0 c 26.0006,0 47.0626,-21.0933 47.0626,-47.0937 0,-12.3819 -4.782,-23.661997 -12.5938,-32.062597 7.8118,-8.4007 12.5936,-19.6804 12.5938,-32.0624 0,-26.0004 -21.0622,-47.0939 -47.0626,-47.0938 -33.8438,0.107 -7.6874,0.042 -41.531197,0 z m -0.031,30.1562 c 33.864597,0 7.729097,0 41.593697,0 10.3088,0.542 17.0267,7.3502 17,16.9376 -0.027,9.5874 -7.61,17.0142 -17,17.0312 l -0.031,0 c -33.8437,0 -7.6875,0 -41.531197,0 l -0.031,0 c -9.3901,-0.017 -17.1228,-7.4438 -17,-17.0312 0.1228,-9.5874 6.6911,-16.3956 17,-16.9376 z m 41.593397,64.0313 c 9.39,0.017 17.0358,7.568897 17,17.031297 -0.036,9.4624 -6.6912,16.3953 -17,16.9374 l -41.593697,0 c -10.3089,-0.5421 -16.8248,-6.475 -17.1105,-16.9374 -0.2857,-10.4624 7.9849,-17.014297 17.375,-17.031297 33.901397,0 7.427797,0 41.329197,0 z"
       style="fill:#000000;fill-opacity:1;stroke:none" />
    <path
       sodipodi:nodetypes="cccccccc"
       style="fill:#000000;fill-opacity:1;stroke:none"
       d="m -29.014507,-47.973733 69.9198,-116.662297 0,-30.5858 -123.4375,0 0,30.5858 84.6874999,0 -70.4821999,116.662297 z"
       id="path266"
       inkscape:connector-curvature="0" />
    <path
       style="fill:#000000;fill-opacity:1;stroke:none"
       d="m -121.61041,-40.819933 c 26.000203,0 47.062603,-21.0935 47.062603,-47.0937 0,-25.990097 -21.0453,-47.045397 -47.031303,-47.062597 l 0,-0.031 -8.0937,0 0,-0.031 -51.0313,0 -0.031,0 c -9.3899,-0.017 -17,-7.6374 -17,-17.0313 1.5665,-9.7198 6.6913,-16.3954 17,-16.9375 l 51.0626,0 0,-30.0938 -51.0313,-0.062 c -26.0005,0 -47.0625,21.0933 -47.0625,47.0937 0,12.3819 4.782,23.6619 12.5938,32.0625 -7.8118,8.4007 -12.5937,19.6805 -12.5938,32.062497 0,26.0003 21.0621,47.0938 47.0625,47.0937 l 16.7813,-0.031 42.3124,0.062 z m 0.031,-30.1563 -8.0937,0 0,-0.031 -51.0626,0 c -10.3087,-0.542 -15.4335,-7.2178 -17,-16.9375 0,-9.394 7.6101,-17.014197 17,-17.031297 l 0.031,0 33.5625,0 25.5312,0.031 c 9.4044,0 17.0671,7.438697 17.0313,17.031297 -0.036,9.5925 -6.6913,16.3955 -17,16.9374 z"
       id="path271"
       inkscape:connector-curvature="0" />
    <path
       inkscape:connector-curvature="0"
       id="path276"
       d="m 247.76429,-201.91973 c -26.0002,0 -47.0626,21.0935 -47.0626,47.0937 0,25.9901 21.0453,47.0454 47.0313,47.0626 l 0,0.031 8.0937,0 0,0.031 51.0313,0 0.031,0 c 9.3899,0.017 17,7.6374 17,17.031297 -1.5665,9.7198 -6.6913,16.3954 -17,16.9375 l -51.0626,0 0,30.0938 51.0313,0.062 c 26.0005,0 47.0625,-21.0933 47.0625,-47.0937 0,-12.381897 -4.782,-23.661897 -12.5938,-32.062497 7.8118,-8.4007 12.5937,-19.6805 12.5938,-32.0625 0,-26.0003 -21.0621,-47.0938 -47.0625,-47.0937 l -16.7813,0.031 -42.3124,-0.062 z m -0.031,30.1563 8.0937,0 0,0.031 51.0626,0 c 10.3087,0.542 15.4335,7.2178 17,16.9375 0,9.394 -7.6101,17.0142 -17,17.0313 l -0.031,0 -33.5625,0 -25.5312,-0.031 c -9.4044,0 -17.0671,-7.4387 -17.0313,-17.0313 0.036,-9.5925 6.6913,-16.3955 17,-16.9374 z"
       style="fill:#000000;fill-opacity:1;stroke:none" />
    <path
       inkscape:connector-curvature="0"
       style="fill:#000000;fill-opacity:1;stroke:none"
       d="m 1417.1226,897.74694 -51.0625,0.062 0.031,30.0938 51.0624,0 c 10.3088,0.542 16.964,7.3449 17,16.9375 0.036,9.5926 -7.6269,17.03106 -17.0312,17.03116 l -17.0625,0.062 -33.5625,29.93615 -0.062,0 0,30.64485 29.1563,0 -0.063,-30.61365 21.625,0 c 25.986,-0.017 47.0313,-21.0714 47.0313,-47.06091 0,-26.0003 -21.0624,-47.0938 -47.0625,-47.0937 z m -21.4688,136.89326 -29.375,0.062 0,29.0938 29.375,0 0,-29.1562 z"
       id="path325"
       sodipodi:nodetypes="ccccsccccccccscccccccc" />
    <g
       id="g540"
       transform="translate(448.50773,341.43156)">
      <path
         id="path529"
         d="m 683.125,70.65625 -74.5,82.65625 0,40.78125 0.15625,0 74.4375,82.59375 1.3125,0 -0.5,-40.75 -55.96875,-62.3125 55.875,-62.21875 0.5,-40.75 -1.3125,0 z"
         style="fill:#000000;fill-opacity:1;stroke:none"
         inkscape:connector-curvature="0" />
      <path
         inkscape:connector-curvature="0"
         style="fill:#000000;fill-opacity:1;stroke:none"
         d="m 743.125,70.65625 -74.5,82.65625 0,40.78125 0.15625,0 74.4375,82.59375 1.3125,0 -0.5,-40.75 -55.96875,-62.3125 55.875,-62.21875 0.5,-40.75 -1.3125,0 z"
         id="path534" />
    </g>
    <g
       id="g544"
       transform="translate(290.92393,274.76149)">
      <path
         inkscape:connector-curvature="0"
         style="fill:#000000;fill-opacity:1;stroke:none"
         d="m 1025.6049,135.30601 74.5,82.65625 0,40.78125 -0.1563,0 -74.4374,82.59375 -1.3125,0 0.5,-40.75 55.9687,-62.3125 -55.875,-62.21875 -0.5,-40.75 1.3125,0 z"
         id="path536" />
      <path
         id="path538"
         d="m 965.6049,135.30601 74.5,82.65625 0,40.78125 -0.1562,0 -74.4375,82.59375 -1.3125,0 0.5,-40.75 55.9687,-62.3125 -55.875,-62.21875 -0.5,-40.75 1.3125,0 z"
         style="fill:#000000;fill-opacity:1;stroke:none"
         inkscape:connector-curvature="0" />
    </g>
    <path
       id="path548"
       d="m 1516.1207,883.67959 -29.007,29.9376 -0.062,108.62391 29.069,0 z m 0.1495,150.68731 -29.375,0.062 0,29.0938 29.375,0 0,-29.1562 z"
       style="fill:#000000;fill-opacity:1;stroke:none"
       inkscape:connector-curvature="0"
       sodipodi:nodetypes="ccccccccccc" />
    <path
       id="path550"
       d="m 1611.0422,860.72466 -51.0625,0.062 0.031,30.0938 51.0624,0 c 10.3088,0.542 16.964,7.3449 17,16.9375 0.036,9.5926 -7.6269,17.0312 -17.0312,17.0313 l -17.0625,0.062 -33.5625,29.9376 -0.062,0 0,108.62504 29.1563,0 -0.063,-108.59384 21.625,0 c 25.986,-0.017 47.0313,-21.0724 47.0313,-47.0625 0,-26.0003 -21.0624,-47.0938 -47.0625,-47.0937 z m -21.4688,214.87504 -29.375,0.062 0,29.0938 29.375,0 0,-29.1562 z"
       style="fill:#000000;fill-opacity:1;stroke:none"
       inkscape:connector-curvature="0" />
  </g>
</svg>
