<?xml version="1.0" encoding="UTF-8" standalone="no"?>
<!-- Created with Inkscape (http://www.inkscape.org/) -->

<svg
   xmlns:dc="http://purl.org/dc/elements/1.1/"
   xmlns:cc="http://creativecommons.org/ns#"
   xmlns:rdf="http://www.w3.org/1999/02/22-rdf-syntax-ns#"
   xmlns:svg="http://www.w3.org/2000/svg"
   xmlns="http://www.w3.org/2000/svg"
   xmlns:xlink="http://www.w3.org/1999/xlink"
   xmlns:sodipodi="http://sodipodi.sourceforge.net/DTD/sodipodi-0.dtd"
   xmlns:inkscape="http://www.inkscape.org/namespaces/inkscape"
   width="210mm"
   height="297mm"
   id="svg2910"
   version="1.1"
   inkscape:version="0.48+devel r10001"
   sodipodi:docname="le faber.svg">
  <defs
     id="defs2912">
    <inkscape:perspective
       sodipodi:type="inkscape:persp3d"
       inkscape:vp_x="0 : 526.18109 : 1"
       inkscape:vp_y="0 : 1000 : 0"
       inkscape:vp_z="744.09448 : 526.18109 : 1"
       inkscape:persp3d-origin="372.04724 : 350.78739 : 1"
       id="perspective2918" />
    <inkscape:perspective
       id="perspective2897"
       inkscape:persp3d-origin="0.5 : 0.33333333 : 1"
       inkscape:vp_z="1 : 0.5 : 1"
       inkscape:vp_y="0 : 1000 : 0"
       inkscape:vp_x="0 : 0.5 : 1"
       sodipodi:type="inkscape:persp3d" />
    <inkscape:perspective
       id="perspective3110"
       inkscape:persp3d-origin="0.5 : 0.33333333 : 1"
       inkscape:vp_z="1 : 0.5 : 1"
       inkscape:vp_y="0 : 1000 : 0"
       inkscape:vp_x="0 : 0.5 : 1"
       sodipodi:type="inkscape:persp3d" />
  </defs>
  <sodipodi:namedview
     id="base"
     pagecolor="#ffffff"
     bordercolor="#666666"
     borderopacity="1.0"
     inkscape:pageopacity="0.0"
     inkscape:pageshadow="2"
     inkscape:zoom="0.5"
     inkscape:cx="1998.3543"
     inkscape:cy="-1992.363"
     inkscape:document-units="px"
     inkscape:current-layer="layer1"
     showgrid="false"
     showguides="true"
     inkscape:guide-bbox="true"
     inkscape:window-width="1920"
     inkscape:window-height="946"
     inkscape:window-x="0"
     inkscape:window-y="0"
     inkscape:window-maximized="1"
     inkscape:snap-global="false">
    <sodipodi:guide
       orientation="0,1"
       position="597.56098,413.41463"
       id="guide2958" />
    <sodipodi:guide
       orientation="0,1"
       position="113.41463,287.80488"
       id="guide2960" />
    <sodipodi:guide
       orientation="0,1"
       position="493.81712,234.38784"
       id="guide3013" />
    <sodipodi:guide
       orientation="0,1"
       position="201.45372,110.15449"
       id="guide3015" />
    <sodipodi:guide
       orientation="1,0"
       position="122.65338,-347.01932"
       id="guide3017" />
    <sodipodi:guide
       orientation="1,0"
       position="260.26449,-365.96577"
       id="guide3019" />
    <sodipodi:guide
       orientation="0,1"
       position="475.78728,172.28508"
       id="guide3021" />
    <sodipodi:guide
       orientation="1,0"
       position="621.32036,-19.657593"
       id="guide3049" />
    <sodipodi:guide
       orientation="1,0"
       position="367.60828,176.29171"
       id="guide3056" />
    <sodipodi:guide
       orientation="1,0"
       position="517.68282,-797.59272"
       id="guide3058" />
    <sodipodi:guide
       orientation="0,1"
       position="443.94312,214.19628"
       id="guide3062" />
    <sodipodi:guide
       orientation="0,1"
       position="511.30932,150.21817"
       id="guide3064" />
    <sodipodi:guide
       orientation="0,1"
       position="530.75502,71.609804"
       id="guide3071" />
    <sodipodi:guide
       orientation="0,1"
       position="579.899,-53.356325"
       id="guide3073" />
    <sodipodi:guide
       orientation="0,1"
       position="772.82609,350"
       id="guide3130" />
    <sodipodi:guide
       orientation="1,0"
       position="770.65217,239.13043"
       id="guide3137" />
    <sodipodi:guide
       orientation="1,0"
       position="-210.01071,-1164.9584"
       id="guide123" />
    <sodipodi:guide
       orientation="1,0"
       position="-74.246212,-1192.8891"
       id="guide125" />
    <sodipodi:guide
       orientation="0,1"
       position="1451.3367,-2729.7857"
       id="guide261" />
    <sodipodi:guide
       orientation="0,1"
       position="1449.5689,-2853.883"
       id="guide263" />
    <sodipodi:guide
       orientation="0,1"
       position="1347,-2718"
       id="guide267" />
    <sodipodi:guide
       orientation="0,1"
       position="2126,-3180"
       id="guide335" />
    <sodipodi:guide
       orientation="0,1"
       position="2432,-3056"
       id="guide346" />
    <sodipodi:guide
       orientation="0,1"
       position="1974.2421,-3299.3602"
       id="guide348" />
  </sodipodi:namedview>
  <metadata
     id="metadata2915">
    <rdf:RDF>
      <cc:Work
         rdf:about="">
        <dc:format>image/svg+xml</dc:format>
        <dc:type
           rdf:resource="http://purl.org/dc/dcmitype/StillImage" />
        <dc:title />
      </cc:Work>
    </rdf:RDF>
  </metadata>
  <g
     inkscape:label="Calque 1"
     inkscape:groupmode="layer"
     id="layer1">
    <path
       style="fill:#000000;fill-opacity:1;stroke:none"
       d="m 1009.625,3097.4688 -73.0625,0.094 0,125.5313 73.2187,0 c 34.4834,-0.237 62.375,-28.2735 62.375,-62.8126 0,-34.5913 -27.9756,-62.6595 -62.5312,-62.8124 z m -44,28.0937 44.1562,0 c 18.9925,0.2358 34.3126,15.6705 34.3126,34.7187 0,19.1007 -15.4043,34.5977 -34.4688,34.75 l -43.96875,0.031 z"
       id="path150"
       inkscape:connector-curvature="0"
       sodipodi:nodetypes="ccccscccsccc" />
    <path
       style="fill:#000000;fill-opacity:1;stroke:none"
       d="m 27.598679,401.35364 0,123.42648 29.09144,0 0,-82.66817 37.15219,41.30379 0.33334,0.39394 0.36364,-0.36364 40.303761,-41.72803 0,83.06211 29.09144,0 0,-123.42648 -28.90962,0 -1.33335,0 -39.485571,40.84923 -36.72794,-40.84923 -1.30305,0 -28.57628,0 z"
       id="path3046"
       inkscape:connector-curvature="0" />
    <path
       sodipodi:nodetypes="ccccccc"
       inkscape:connector-curvature="0"
       id="path3048"
       d="m 124.1862,1249.7255 0,124.1242 135.8776,0 0,-29.0915 -106.7861,0 0,-95.0327 z"
       style="fill:#000000;fill-opacity:1;stroke:none" />
    <path
       style="fill:#000000;fill-opacity:1;stroke:none"
       d="m 295.63268,312.08585 0,124.12411 177.3061,0 0,-29.09142 -148.2146,0 0,-95.03269 z"
       id="path3053"
       inkscape:connector-curvature="0"
       sodipodi:nodetypes="ccccccc" />
    <path
       style="fill:#000000;fill-opacity:1;stroke:none"
       d="m 273.96157,1249.7247 0,124.125 29.09375,0 106.78125,0 0,-29.0938 -106.78125,0 0,-18.4375 106.78125,0 0,-29.0625 -106.78125,0 0,-18.4375 106.78125,0 0,-29.0937 -106.78125,0 -29.09375,0 z"
       id="path3055" />
    <path
       style="fill:#000000;fill-opacity:1;stroke:none"
       d="m 225.63268,615.49565 0,-124.12411 135.8776,0 0,29.09142 -106.7861,0 0,95.03269 z"
       id="path3061"
       inkscape:connector-curvature="0"
       sodipodi:nodetypes="ccccccc" />
    <path
       sodipodi:nodetypes="ccccc"
       inkscape:connector-curvature="0"
       id="path3063"
       d="m 236.60698,574.06709 121.3318,0 0,-29.09142 -121.3318,0 z"
       style="fill:#000000;fill-opacity:1;stroke:none" />
    <path
       inkscape:connector-curvature="0"
       id="path3065"
       d="m 214.99508,640.63602 0,123.42648 29.0914,0 0,-82.66816 37.1522,41.30378 0.3333,0.39394 0.3637,-0.36364 40.3037,-41.72803 0,83.06211 29.0915,0 0,-123.42648 -28.9097,0 -1.3333,0 -39.4856,40.84923 -36.7279,-40.84923 -1.3031,0 -28.5762,0 z"
       style="fill:#000000;fill-opacity:1;stroke:none" />
    <path
       sodipodi:nodetypes="ccccc"
       inkscape:connector-curvature="0"
       id="path2946"
       d="m 510.4935,528.16986 121.3318,0 0,-29.09142 -121.3318,0 z"
       style="fill:#000000;fill-opacity:1;stroke:none" />
    <path
       style="fill:#000000;fill-opacity:1;stroke:none"
       d="m 517.15821,249.92316 c -36.33452,0 -65.78125,29.44673 -65.78125,65.78125 0,36.33452 29.44673,65.78125 65.78125,65.78125 36.33452,0 65.78125,-29.44673 65.78125,-65.78125 0,-36.33452 -29.44673,-65.78125 -65.78125,-65.78125 z m 0,27.625 c 21.07402,0 38.15625,17.08223 38.15625,38.15625 0,21.07402 -17.08223,38.15625 -38.15625,38.15625 -21.07402,0 -38.15625,-17.08223 -38.15625,-38.15625 0,-21.07402 17.08223,-38.15625 38.15625,-38.15625 z"
       id="path2951" />
    <path
       style="fill:#000000;fill-opacity:1;stroke:none"
       d="m 441.12088,835.27369 0,124.12411 29.14774,0 -0.0562,-124.12411 -29.0915,0 z"
       id="path2956"
       inkscape:connector-curvature="0"
       sodipodi:nodetypes="ccccc" />
    <path
       style="fill:#000000;fill-opacity:1;stroke:none"
       d="m 1671.4992,1126.8321 c -34.6862,0 -62.7813,28.1263 -62.7813,62.8125 0,34.6862 28.0951,62.8125 62.7813,62.8125 34.6861,0 62.8125,-28.1263 62.8125,-62.8125 0,-34.6862 -28.1264,-62.8125 -62.8125,-62.8125 z m 0,28.0625 c 19.1952,0 34.7812,15.5547 34.7812,34.75 0,19.1953 -15.586,34.75 -34.7812,34.75 -19.1953,0 -34.75,-15.5547 -34.75,-34.75 0,-19.1953 15.5547,-34.75 34.75,-34.75 z"
       id="path2962" />
    <path
       sodipodi:nodetypes="ccccc"
       inkscape:connector-curvature="0"
       id="path2949"
       d="m -336.59973,419.43535 0,124.12411 29.14774,0 -0.0562,-124.12411 -29.0915,0 z"
       style="fill:#ff0000;fill-opacity:1;stroke:none" />
    <path
       transform="translate(246.34146,-413.41464)"
       d="m -239.02441,701.75244 a 62.804874,62.804874 0 1 1 -125.60975,0 62.804874,62.804874 0 1 1 125.60975,0 z"
       sodipodi:ry="62.804874"
       sodipodi:rx="62.804874"
       sodipodi:cy="701.75244"
       sodipodi:cx="-301.82928"
       id="path2966"
       style="fill:#000000;fill-opacity:1;stroke:none"
       sodipodi:type="arc" />
    <path
       transform="matrix(0.55339803,0,0,0.55339803,111.54391,-100.01061)"
       sodipodi:type="arc"
       style="fill:#ffffff;fill-opacity:1;stroke:none"
       id="path2968"
       sodipodi:cx="-301.82928"
       sodipodi:cy="701.75244"
       sodipodi:rx="62.804874"
       sodipodi:ry="62.804874"
       d="m -239.02441,701.75244 a 62.804874,62.804874 0 1 1 -125.60975,0 62.804874,62.804874 0 1 1 125.60975,0 z" />
    <path
       sodipodi:type="arc"
       style="fill:#000000;fill-opacity:1;stroke:none"
       id="path2977"
       sodipodi:cx="-301.82928"
       sodipodi:cy="701.75244"
       sodipodi:rx="62.804874"
       sodipodi:ry="62.804874"
       d="m -239.02441,701.75244 a 62.804874,62.804874 0 1 1 -125.60975,0 62.804874,62.804874 0 1 1 125.60975,0 z"
       transform="translate(124.39024,-151.21952)" />
    <path
       d="m -239.02441,701.75244 a 62.804874,62.804874 0 1 1 -125.60975,0 62.804874,62.804874 0 1 1 125.60975,0 z"
       sodipodi:ry="62.804874"
       sodipodi:rx="62.804874"
       sodipodi:cy="701.75244"
       sodipodi:cx="-301.82928"
       id="path2979"
       style="fill:#ffffff;fill-opacity:1;stroke:none"
       sodipodi:type="arc"
       transform="matrix(0.55339803,0,0,0.55339803,-10.40731,162.18451)" />
    <path
       transform="matrix(0.5,0,0,0.5,-27.439035,-9.794515)"
       d="m -239.02441,701.75244 a 62.804874,62.804874 0 1 1 -125.60975,0 62.804874,62.804874 0 1 1 125.60975,0 z"
       sodipodi:ry="62.804874"
       sodipodi:rx="62.804874"
       sodipodi:cy="701.75244"
       sodipodi:cx="-301.82928"
       id="path2981"
       style="fill:#000000;fill-opacity:1;stroke:none"
       sodipodi:type="arc" />
    <path
       transform="matrix(0.13834951,0,0,0.13834951,-136.59574,243.9946)"
       sodipodi:type="arc"
       style="fill:#ffffff;fill-opacity:1;stroke:none"
       id="path2983"
       sodipodi:cx="-301.82928"
       sodipodi:cy="701.75244"
       sodipodi:rx="62.804874"
       sodipodi:ry="62.804874"
       d="m -239.02441,701.75244 a 62.804874,62.804874 0 1 1 -125.60975,0 62.804874,62.804874 0 1 1 125.60975,0 z" />
    <path
       style="fill:#000000;fill-opacity:1;stroke:none"
       d="m 1303.7735,1286.0727 0,123.4375 29.0937,0 0,-82.6875 74.25,82.6875 1.3125,0 28.5938,0 0,-123.4375 -29.0938,0 0,82.6563 -74.25,-82.6563 -1.3125,0 -28.5937,0 z"
       id="path3006"
       sodipodi:nodetypes="ccccccccccccc" />
    <path
       style="fill:#000000;fill-opacity:1;stroke:none"
       d="m 646.71777,817.20434 0,63.42258 c -1.60165,21.13776 -15.00709,31.30162 -34.75,34.46875 -19.07966,0 -34.5642,-15.4331 -34.75,-34.46875 l 0.0625,-63.42258 -28.21875,0 0,63.42258 c 0.18641,34.52675 28.33568,62.53125 62.90625,62.53125 34.59154,0 62.65961,-27.97557 62.8125,-62.53125 l 0,-63.42258 -28.0625,0 z"
       id="path3011"
       sodipodi:nodetypes="cccccccsccc" />
    <path
       id="path3030"
       d="m -80.424873,906.23857 c 0.15272,34.55568 28.18971,62.53125 62.78125,62.53125 34.59154,0 62.65961,-27.97557 62.8125,-62.53125 l -28.03125,0 c -0.15257,19.06467 -15.6805895,34.46875 -34.78125,34.46875 -19.10058,0 -34.59759,-15.4042 -34.75,-34.46875 l -28.03125,0 z"
       style="fill:#000000;fill-opacity:1;stroke:none" />
    <path
       style="fill:#000000;fill-opacity:1;stroke:none"
       d="m -165.37291,766.40158 c -34.55568,-0.1527 -62.53125,-28.1898 -62.53125,-62.7813 0,-34.5915 27.97557,-62.6596 62.53125,-62.8125 l 0,28.0313 c -19.06467,0.1525 -34.46875,15.6805 -34.46875,34.7812 0,19.1006 15.4042,34.5976 34.46875,34.75 l 0,28.0313 z"
       id="path3033" />
    <path
       style="fill:#000000;fill-opacity:1;stroke:none"
       d="m 436.40589,986.25931 c -26.00042,0 -47.09375,21.09329 -47.09375,47.09379 0,26.0004 21.09333,47.0625 47.09375,47.0625 26.00042,0 47.0625,-21.0621 47.0625,-47.0625 0,-26.0005 -21.06208,-47.09379 -47.0625,-47.09379 z m 0,30.06249 c 9.40441,0 17.03125,7.6268 17.03125,17.0313 0,9.4044 -7.62684,17.0312 -17.03125,17.0312 -9.40441,0 -17.03125,-7.6268 -17.03125,-17.0312 0,-9.4045 7.62684,-17.0313 17.03125,-17.0313 z"
       id="path3037" />
    <path
       style="fill:#000000;fill-opacity:1;stroke:none"
       d="m 507.49133,639.28736 0,125.19241 29.15625,0 0,-31.00491 51.03125,0 0,-0.0312 c 25.98605,-0.0169 47.03125,-21.07249 47.03125,-47.0625 0,-26.00042 -21.06208,-47.09375 -47.0625,-47.09375 l -51.0625,0.0625 0,-0.0625 -29.09375,0 0,-5e-5 z m 97.1875,47.09375 c 0,9.40441 -7.62684,17.03125 -17.03125,17.03125 l -51.03125,0.0625 -0.0312,-34.03125 51.09375,0 c 10.30884,0.54206 15.43352,7.21773 17,16.9375 l -5e-5,0 z"
       id="path3035"
       sodipodi:nodetypes="ccccccscccccccccccc" />
    <path
       transform="matrix(0.77031673,0,0,0.77031673,-119.81255,336.58044)"
       d="m 546.9328,881.09265 a 61.115017,61.115017 0 1 1 -122.23004,0 61.115017,61.115017 0 1 1 122.23004,0 z"
       sodipodi:ry="61.115017"
       sodipodi:rx="61.115017"
       sodipodi:cy="881.09265"
       sodipodi:cx="485.81778"
       id="path3041"
       style="fill:#000000;fill-opacity:1;stroke:none"
       sodipodi:type="arc" />
    <path
       sodipodi:type="arc"
       style="fill:#ffffff;fill-opacity:1;stroke:none"
       id="path3043"
       sodipodi:cx="485.81778"
       sodipodi:cy="881.09265"
       sodipodi:rx="61.115017"
       sodipodi:ry="61.115017"
       d="m 546.9328,881.09265 a 61.115017,61.115017 0 1 1 -122.23004,0 61.115017,61.115017 0 1 1 122.23004,0 z"
       transform="matrix(0.27862541,0,0,0.27862541,119.05984,769.80605)" />
    <path
       style="fill:#000000;fill-opacity:1;stroke:none"
       d="m 1157.0949,1282.4616 0,125.2188 29.1562,0 0,-31.0313 41.8126,0 24.1562,31.1876 33.4688,0 -27.875,-35.9063 c 15.6966,-7.6273 26.5,-23.7442 26.5,-42.375 0,-26.0004 -21.0621,-47.0938 -47.0625,-47.0938 l -51.0626,0.062 0,-0.062 z m 29.0937,30.1563 51.0938,0 c 10.3088,0.5421 17.0267,7.1573 17,16.9375 -0.027,9.7802 -7.6268,17.0313 -17.0312,17.0313 l -51.0313,0.062 -0.031,-34.0312 z"
       id="path3067"
       inkscape:connector-curvature="0"
       sodipodi:nodetypes="ccccccccscccccczcccc" />
    <path
       sodipodi:nodetypes="ccccc"
       inkscape:connector-curvature="0"
       id="path3075"
       d="m 386.36044,821.93461 0,124.12411 29.14774,0 -0.0562,-124.12411 -29.0915,0 z"
       style="fill:#000000;fill-opacity:1;stroke:none" />
    <path
       style="fill:#000000;fill-opacity:1;stroke:none"
       d="m 793.75999,1024.9647 33.46045,0 -34.0562,-43.89446 -33.40421,0 33.99996,43.89446 z"
       id="path3078"
       inkscape:connector-curvature="0"
       sodipodi:nodetypes="ccccc" />
    <path
       sodipodi:nodetypes="ccccccsccccccccccccc"
       id="path3081"
       d="m 1873.9175,3284.0353 0,125.1613 29.1562,0 0,-31.0049 51.0313,0 0,-0.031 c 25.986,-0.017 47.0312,-21.0725 47.0312,-47.0625 0,-26.0005 -21.062,-47.0629 -47.0625,-47.0629 l -51.0625,0 -29.0937,0 0,0 z m 97.1875,47.0626 c 0,9.4044 -7.6269,17.0313 -17.0313,17.0313 l -51.0312,0.062 -0.031,-34.0313 51.0937,0 c 10.3089,0.5421 15.4336,7.2177 17,16.9375 l 0,0 z"
       style="fill:#000000;fill-opacity:1;stroke:none"
       inkscape:connector-curvature="0" />
    <path
       style="fill:#000000;fill-opacity:1;stroke:none"
       d="m 877.35402,1395.9502 0,-125.1924 29.1563,0 0,31.0049 51.0312,0 0,0.031 c 25.9861,0.017 47.03128,21.0725 47.03128,47.0625 0,26.0004 -21.06208,47.0938 -47.06248,47.0938 l -51.0625,-0.062 0,0.062 -29.0938,0 0,0 z m 97.1875,-47.0937 c 0,-9.4044 -7.6268,-17.0313 -17.0312,-17.0313 l -51.0313,-0.062 -0.031,34.0313 51.0938,0 c 10.3088,-0.5421 15.4335,-7.2178 17,-16.9375 l -10e-5,0 z"
       id="path3083"
       sodipodi:nodetypes="ccccccscccccccccccc" />
    <path
       style="fill:#000000;fill-opacity:1;stroke:none"
       d="m 686.78179,640.0579 0,124.12411 29.14774,0 -0.0562,-124.12411 -29.0915,0 z"
       id="path3085"
       inkscape:connector-curvature="0"
       sodipodi:nodetypes="ccccc" />
    <path
       style="fill:#000000;fill-opacity:1;stroke:none"
       d="m 420.24622,1249.7247 0,124.125 29.09375,0 0,-47.5 106.78125,0 0,-29.0938 -106.78125,0 0,-18.4374 106.78125,0 0,-29.0938 -135.875,0 z"
       id="path3087" />
    <path
       id="path3092"
       d="m 566.53087,1249.7247 0,124.125 29.09375,0 106.78125,0 0,-29.0938 -106.78125,0 0,-18.4375 106.78125,0 0,-29.0625 -106.78125,0 0,-18.4375 106.78125,0 0,-29.0937 -106.78125,0 -29.09375,0 z"
       style="fill:#000000;fill-opacity:1;stroke:none" />
    <path
       style="fill:#000000;fill-opacity:1;stroke:none"
       d="m 566.53087,1389.7247 0,124.125 29.09375,0 106.78125,0 0,-29.0938 -106.78125,0 0,-18.4375 106.78125,0 0,-29.0625 -106.78125,0 0,-18.4375 106.78125,0 0,-29.0937 -106.78125,0 -29.09375,0 z"
       id="path3094" />
    <path
       sodipodi:nodetypes="cccccccsccc"
       id="path3096"
       d="m 1111.0419,1285.5234 0,63.4225 c -1.6017,21.1378 -15.0071,31.3017 -34.75,34.4688 -19.0797,0 -34.5642,-15.4331 -34.75,-34.4688 l 0.062,-63.4225 -28.2188,0 0,63.4225 c 0.1864,34.5268 28.3357,62.5313 62.9063,62.5313 34.5915,0 62.6596,-27.9756 62.8125,-62.5313 l 0,-63.4225 -28.0625,0 z"
       style="fill:#000000;fill-opacity:1;stroke:none" />
    <path
       sodipodi:type="arc"
       style="fill:#000000;fill-opacity:1;stroke:none"
       id="path3098"
       sodipodi:cx="485.81778"
       sodipodi:cy="881.09265"
       sodipodi:rx="61.115017"
       sodipodi:ry="61.115017"
       d="m 546.9328,881.09265 a 61.115017,61.115017 0 1 1 -122.23004,0 61.115017,61.115017 0 1 1 122.23004,0 z"
       transform="matrix(0.77031673,0,0,0.77031673,505.38864,6.9289053)" />
    <path
       transform="matrix(0.27862541,0,0,0.27862541,744.26103,440.15452)"
       d="m 546.9328,881.09265 a 61.115017,61.115017 0 1 1 -122.23004,0 61.115017,61.115017 0 1 1 122.23004,0 z"
       sodipodi:ry="61.115017"
       sodipodi:rx="61.115017"
       sodipodi:cy="881.09265"
       sodipodi:cx="485.81778"
       id="path3100"
       style="fill:#ffffff;fill-opacity:1;stroke:none"
       sodipodi:type="arc" />
    <path
       sodipodi:nodetypes="ccccc"
       inkscape:connector-curvature="0"
       id="path3124"
       d="m 645.44565,1237.6955 -33.46045,0 34.0562,-43.8945 33.40421,0 -33.99996,43.8945 z"
       style="fill:#000000;fill-opacity:1;stroke:none" />
    <path
       style="fill:#000000;fill-opacity:1;stroke:none"
       d="m 741.30842,640 0,20.03125 c 6.02418,0.21479 10.84375,5.14216 10.84375,11.21875 0,6.07659 -4.81957,11.00396 -10.84375,11.21875 l 0,20.03125 c 17.06917,-0.22036 30.84375,-14.12853 30.84375,-31.25 0,-17.12147 -13.77458,-31.02964 -30.84375,-31.25 z"
       id="path3126" />
    <path
       transform="matrix(0.51133096,0,0,0.51133096,894.67513,141.3572)"
       d="m 546.9328,881.09265 a 61.115017,61.115017 0 1 1 -122.23004,0 61.115017,61.115017 0 1 1 122.23004,0 z"
       sodipodi:ry="61.115017"
       sodipodi:rx="61.115017"
       sodipodi:cy="881.09265"
       sodipodi:cx="485.81778"
       id="path3132"
       style="fill:#000000;fill-opacity:1;stroke:none"
       sodipodi:type="arc" />
    <path
       sodipodi:type="arc"
       style="fill:#ffffff;fill-opacity:1;stroke:none"
       id="path3134"
       sodipodi:cx="485.81778"
       sodipodi:cy="881.09265"
       sodipodi:rx="61.115017"
       sodipodi:ry="61.115017"
       d="m 546.9328,881.09265 a 61.115017,61.115017 0 1 1 -122.23004,0 61.115017,61.115017 0 1 1 122.23004,0 z"
       transform="matrix(0.12271943,0,0,0.12271943,1083.4695,483.75996)" />
    <path
       style="fill:#000000;fill-opacity:1;stroke:none"
       d="m 1436.9974,2154.3419 0,33.125 0,92.0625 0,33.125 29.0937,0 0,-0.062 51.0625,0.062 c 26.0004,0 47.0626,-21.0934 47.0626,-47.0938 0,-12.3819 -4.782,-23.6618 -12.5938,-32.0624 7.8118,-8.4007 12.5938,-19.6806 12.5938,-32.0626 0,-26.0003 -21.0622,-47.0937 -47.0626,-47.0937 l -51.0625,0.062 0,-0.062 -29.0937,0 z m 29.0937,30.1563 51.0938,0 c 10.3088,0.542 15.4335,7.2177 17,16.9374 0,9.394 -7.61,17.0144 -17,17.0313 -0.011,0 -0.021,0 -0.031,0 l -51.0001,0 0,-31 -0.062,0 0,-2.9687 z m 0.062,64.0312 51.0001,0 0.031,0 c 9.39,0.017 17,7.6373 17,17.0312 -1.5665,9.7198 -6.6912,16.3955 -17,16.9376 l -51.0938,0 0,-2.9688 0.062,0 0,-31 z"
       id="path3142"
       inkscape:connector-curvature="0" />
    <path
       style="fill:#000000;fill-opacity:1;stroke:none"
       d="m -139.97813,1985.8211 0,124.1242 135.8776001,0 0,-29.0915 -106.7861001,0 0,-95.0327 z"
       id="path3147"
       inkscape:connector-curvature="0"
       sodipodi:nodetypes="ccccccc" />
    <path
       id="path3149"
       d="m 886.60024,1907.2846 0,124.125 29.0938,0 106.78126,0 0,-29.0938 -106.78126,0 0,-18.4375 106.78126,0 0,-29.0625 -106.78126,0 0,-18.4375 106.78126,0 0,-29.0937 -106.78126,0 -29.0938,0 z"
       style="fill:#000000;fill-opacity:1;stroke:none"
       inkscape:connector-curvature="0" />
    <path
       sodipodi:nodetypes="ccccccc"
       inkscape:connector-curvature="0"
       id="path3151"
       d="m 630.03826,1786.0058 0,124.1242 135.87758,0 0,-29.0915 -106.78608,0 0,-95.0327 z"
       style="fill:#000000;fill-opacity:1;stroke:none" />
    <path
       id="path3153"
       d="m 1837.4425,1566.0895 0,33.125 0,92.0625 0,33.125 29.0938,0 0,-0.062 51.0624,0.062 c 26.0004,0 47.0626,-21.0934 47.0626,-47.0938 0,-12.3819 -4.782,-23.6618 -12.5938,-32.0624 7.8118,-8.4007 12.5938,-19.6806 12.5938,-32.0626 0,-26.0003 -21.0622,-47.0937 -47.0626,-47.0937 l -51.0624,0.062 0,-0.062 -29.0938,0 z m 29.0938,30.1563 51.0937,0 c 10.3088,0.542 15.4335,7.2177 17,16.9374 0,9.394 -7.61,17.0144 -17,17.0313 -0.011,0 -0.021,0 -0.031,0 l -51,0 0,-31 -0.062,0 0,-2.9687 z m 0.062,64.0312 51,0 0.031,0 c 9.39,0.017 17,7.6373 17,17.0312 -1.5665,9.7198 -6.6912,16.3955 -17,16.9376 l -51.0937,0 0,-2.9688 0.062,0 0,-31 z"
       style="fill:#000000;fill-opacity:1;stroke:none" />
    <path
       id="path3155"
       d="m 878.03814,1630.8799 0,124.125 29.0938,0 0,-47.5 106.78126,0 0,-29.0938 -106.78126,0 0,-18.4374 106.78126,0 0,-29.0938 -135.87506,0 z"
       style="fill:#000000;fill-opacity:1;stroke:none"
       inkscape:connector-curvature="0" />
    <path
       style="fill:#000000;fill-opacity:1;stroke:none"
       d="m -191.73531,1577.4106 -34.0626,43.9063 33.4688,0 34,-43.9063 -33.4062,0 z m -68.2813,55.9375 0,124.125 29.0937,0 106.78133,0 0,-29.0938 -106.78133,0 0,-18.4374 106.78133,0 0,-29.0626 -106.78133,0 0,-18.4374 106.78133,0 0,-29.0938 -106.78133,0 -29.0937,0 z"
       id="path3157"
       inkscape:connector-curvature="0" />
    <path
       id="path3162"
       d="m 1327.738,1725.4192 0,125.2188 29.1563,0 0,-31.0313 41.8125,0 24.1562,31.1876 33.4688,0 -27.875,-35.9063 c 15.6966,-7.6273 26.5,-23.7442 26.5,-42.375 0,-26.0004 -21.0621,-47.0938 -47.0625,-47.0938 l -51.0625,0.062 0,-0.062 -29.0938,0 z m 29.0938,30.1563 51.0937,0 c 10.3088,0.5421 15.4335,7.2178 17,16.9375 0,9.4045 -7.6268,17.0313 -17.0312,17.0313 l -51.0313,0.062 -0.031,-34.0312 z"
       style="fill:#000000;fill-opacity:1;stroke:none" />
    <path
       id="path3164"
       d="m 1467.84,1725.3156 0,124.125 29.0937,0 106.7812,0 0,-29.0938 -106.7812,0 0,-18.4375 106.7812,0 0,-29.0625 -106.7812,0 0,-18.4375 106.7812,0 0,-29.0937 -106.7812,0 -29.0937,0 z"
       style="fill:#000000;fill-opacity:1;stroke:none" />
    <path
       sodipodi:nodetypes="ccccccscccccccccccc"
       id="path3166"
       d="m 1643.3583,1516.7345 0,-125.1924 29.1563,0 0,31.0049 51.0312,0 0,0.031 c 25.9861,0.017 47.0313,21.0725 47.0313,47.0625 0,26.0004 -21.0621,47.0938 -47.0625,47.0938 l -51.0625,-0.062 0,0.062 -29.0938,0 0,0 z m 97.1875,-47.0937 c 0,-9.4044 -7.6268,-17.0313 -17.0312,-17.0313 l -51.0313,-0.062 -0.031,34.0313 51.0938,0 c 10.3088,-0.5421 15.4335,-7.2178 17,-16.9375 l -10e-5,0 z"
       style="fill:#000000;fill-opacity:1;stroke:none" />
    <path
       style="fill:#000000;fill-opacity:1;stroke:none"
       d="m -447.19632,1296.2956 c -30.00255,-17.1454 -68.26416,-6.8255 -85.55991,23.1316 -17.2643,29.9026 -7.12344,68.0879 22.60063,85.542 l -0.0781,0.1353 c 16.43418,9.6643 22.02611,30.7872 12.47581,47.3288 -9.55035,16.5417 -30.65473,22.2874 -47.24141,12.887 l -14.01565,24.2758 c 30.00254,17.1454 68.26415,6.8255 85.5599,-23.1316 17.2643,-29.9026 7.12344,-68.0879 -22.60067,-85.542 l 0.0781,-0.1353 c -16.43419,-9.6643 -22.02612,-30.7872 -12.47582,-47.3288 9.55035,-16.5417 30.65473,-22.2874 47.24147,-12.8871 l 14.0156,-24.2757 z"
       id="path3054"
       inkscape:connector-curvature="0" />
    <path
       id="path3059"
       d="m -426.66695,2026.1259 0,124.125 29.09375,0 0,-47.5 106.78125,0 0,-29.0939 -106.78125,0 0,-18.4374 106.78125,0 0,-29.0938 -135.875,0 z"
       style="fill:#000000;fill-opacity:1;stroke:none"
       inkscape:connector-curvature="0" />
    <path
       sodipodi:nodetypes="ccccc"
       inkscape:connector-curvature="0"
       id="path3062"
       d="m -267.82703,2026.1263 0,124.1241 29.14774,0 -0.0562,-124.1241 -29.0915,0 z"
       style="fill:#000000;fill-opacity:1;stroke:none" />
    <path
       style="fill:#000000;fill-opacity:1;stroke:none"
       d="m -644.98541,2194.3438 c -33.41779,-8.796 -67.70467,11.0751 -76.65762,44.4879 -8.9502,33.4027 10.80103,67.7146 44.12141,76.8182 0.0113,0.01 0.02,0.01 0.0303,0.01 18.35728,5.0941 29.20291,24.0695 24.262,42.5092 -4.9436,18.4498 -23.83383,29.4318 -42.28822,24.6447 l -7.25504,27.0762 c 33.4178,8.7961 67.69662,-11.0449 76.64957,-44.4577 8.9502,-33.4028 -10.793,-67.7445 -44.11329,-76.8484 -0.0113,-0.01 -0.02,-0.01 -0.0303,-0.01 -18.35722,-5.0939 -29.21098,-24.0393 -24.2701,-42.479 4.94363,-18.4498 23.84179,-29.462 42.2963,-24.6748 l 7.25501,-27.0763 z"
       id="path3064"
       inkscape:connector-curvature="0" />
    <path
       inkscape:connector-curvature="0"
       id="path3069"
       d="m 92.902558,2209.0702 c 33.417792,8.796 67.704672,-11.0751 76.657622,-44.4879 8.9502,-33.4027 -10.80103,-67.7146 -44.12141,-76.8182 -0.0113,-0.01 -0.02,-0.01 -0.0303,-0.01 -18.35728,-5.0941 -29.202912,-24.0695 -24.262,-42.5092 4.9436,-18.4498 23.83383,-29.4318 42.28822,-24.6447 l 7.25504,-27.0762 c -33.4178,-8.7961 -67.696622,11.0449 -76.649572,44.4577 -8.9502,33.4028 10.793,67.7445 44.113292,76.8484 0.0113,0.01 0.02,0.01 0.0303,0.01 18.35722,5.0939 29.21098,24.0393 24.2701,42.479 -4.94363,18.4498 -23.84179,29.462 -42.2963,24.6748 l -7.255012,27.0763 z"
       style="fill:#000000;fill-opacity:1;stroke:none" />
    <path
       style="fill:#000000;fill-opacity:1;stroke:none"
       d="m -236.43447,1850.1741 0,29.0625 54.92779,0 0,95.0625 0.21875,0 28.875,0 0.21875,0 0,-95.0625 53.930613,0 0,-29.0625 -54.149363,0 -28.875,0 z"
       id="path3071"
       inkscape:connector-curvature="0"
       sodipodi:nodetypes="ccccccccccccc" />
    <path
       id="path3076"
       d="m -383.98224,1850.1741 0,124.125 29.09375,0 106.78125,0 0,-29.0938 -106.78125,0 0,-18.4375 106.78125,0 0,-29.0625 -106.78125,0 0,-18.4375 106.78125,0 0,-29.0937 -106.78125,0 -29.09375,0 z"
       style="fill:#000000;fill-opacity:1;stroke:none"
       inkscape:connector-curvature="0" />
    <path
       style="fill:#000000;fill-opacity:1;stroke:none"
       d="m -710.66891,1633.3076 0,124.1242 135.8776,0 0,-29.0915 -106.7861,0 0,-95.0327 z"
       id="path3079"
       inkscape:connector-curvature="0"
       sodipodi:nodetypes="ccccccc" />
    <path
       id="path3082"
       d="m -560.89354,1633.3068 0,124.125 29.09375,0 106.78125,0 0,-29.0938 -106.78125,0 0,-18.4375 106.78125,0 0,-29.0625 -106.78125,0 0,-18.4375 106.78125,0 0,-29.0937 -106.78125,0 -29.09375,0 z"
       style="fill:#000000;fill-opacity:1;stroke:none"
       inkscape:connector-curvature="0" />
    <path
       id="path3084"
       d="m -414.60889,1633.3068 0,124.125 29.09375,0 0,-47.5 106.78125,0 0,-29.0938 -106.78125,0 0,-18.4374 106.78125,0 0,-29.0938 -135.875,0 z"
       style="fill:#000000;fill-opacity:1;stroke:none"
       inkscape:connector-curvature="0" />
    <path
       id="path3086"
       d="m -98.774255,1618.4024 0,33.125 0,92.0625 0,33.125 29.0937,0 0,-0.062 51.0625,0.062 c 26.0004004,0 47.0626,-21.0934 47.0626,-47.0938 0,-12.3819 -4.782,-23.6618 -12.5938,-32.0624 7.8118,-8.4007 12.5938,-19.6806 12.5938,-32.0626 0,-26.0003 -21.0621996,-47.0937 -47.0626,-47.0937 l -51.0625,0.062 0,-0.062 -29.0937,0 z m 29.0937,30.1563 51.0938,0 c 10.3088004,0.542 15.4335004,7.2177 17.0000004,16.9374 0,9.394 -7.61,17.0144 -17.0000004,17.0313 -0.011,0 -0.021,0 -0.031,0 l -51.0001,0 0,-31 -0.062,0 0,-2.9687 z m 0.062,64.0312 51.0001,0 0.031,0 c 9.3900004,0.017 17.0000004,7.6373 17.0000004,17.0312 -1.5665,9.7198 -6.6912,16.3955 -17.0000004,16.9376 l -51.0938,0 0,-2.9688 0.062,0 0,-31 z"
       style="fill:#000000;fill-opacity:1;stroke:none"
       inkscape:connector-curvature="0" />
    <path
       style="fill:#000000;fill-opacity:1;stroke:none"
       d="m 154.90716,1640.9009 0,63.4225 c -1.6017,21.1378 -15.0071,31.3017 -34.75,34.4688 -19.0797,0 -34.564198,-15.4331 -34.749998,-34.4688 l 0.062,-63.4225 -28.2188,0 0,63.4225 c 0.1864,34.5268 28.3357,62.5313 62.906298,62.5313 34.5915,0 62.6596,-27.9756 62.8125,-62.5313 l 0,-63.4225 -28.0625,0 z"
       id="path3088"
       sodipodi:nodetypes="cccccccsccc"
       inkscape:connector-curvature="0" />
    <path
       id="path3090"
       d="m 192.49879,1635.0187 0,125.2188 29.1562,0 0,-31.0313 41.8126,0 24.1562,31.1876 33.4688,0 -27.875,-35.9063 c 15.6966,-7.6273 26.5,-23.7442 26.5,-42.375 0,-26.0004 -21.0621,-47.0938 -47.0625,-47.0938 l -51.0626,0.062 0,-0.062 -29.0937,0 z m 29.0937,30.1563 51.0938,0 c 10.3088,0.5421 15.4335,7.2178 17,16.9375 0,9.4045 -7.6268,17.0313 -17.0312,17.0313 l -51.0313,0.062 -0.031,-34.0312 z"
       style="fill:#000000;fill-opacity:1;stroke:none"
       inkscape:connector-curvature="0" />
    <path
       id="path3093"
       d="m 346.53527,1635.1044 0,124.125 29.09375,0 106.78125,0 0,-29.0938 -106.78125,0 0,-18.4375 106.78125,0 0,-29.0625 -106.78125,0 0,-18.4375 106.78125,0 0,-29.0937 -106.78125,0 -29.09375,0 z"
       style="fill:#000000;fill-opacity:1;stroke:none"
       inkscape:connector-curvature="0" />
    <path
       style="fill:#000000;fill-opacity:1;stroke:none"
       d="m -519.41761,2018.9972 c -34.55568,0.1529 -62.53125,28.221 -62.53125,62.8124 0,34.4552 27.75749,62.4106 62.125,62.7813 0.13597,0 0.27007,-6e-4 0.40625,0 l 28.71875,0 -0.0312,-62.0625 -29.09375,0 0,34.0312 c -18.87651,-0.3676 -34.0625,-15.7853 -34.0625,-34.75 0,-19.0484 15.3201,-34.5452 34.3125,-34.7812 l 62.0625,0.062 0,-28.0937 z"
       id="path3095"
       inkscape:connector-curvature="0"
       sodipodi:nodetypes="csccccccscccc" />
    <path
       sodipodi:nodetypes="cccccccccc"
       id="path93"
       d="m 1306.2241,1637.3238 123.4375,0 0,-29.0936 -82.6875,0 82.6875,-74.25 0,-1.0625 -40.7811,0 -82.6564,74.5 0,1.3125 z"
       style="fill:#000000;fill-opacity:1;stroke:none"
       inkscape:connector-curvature="0" />
    <path
       inkscape:connector-curvature="0"
       style="fill:#000000;fill-opacity:1;stroke:none"
       d="m 1623.3621,1652.8846 0,-123.4375 29.0937,0 0,82.6875 74.25,-82.6875 1.0625,0 0,40.7812 -74.5,82.6563 -1.3125,0 z"
       id="path95"
       sodipodi:nodetypes="cccccccccc" />
    <path
       style="fill:#000000;fill-opacity:1;stroke:none"
       d="m 201.10688,1978.3089 c -26.00015,0 -47.0625,21.0935 -47.0625,47.0938 0,25.99 21.0453,47.0611 47.03125,47.0781 l 51.0313,0 1.5,0.016 c 9.4038,0.098 17.067,7.4387 17.0312,17.0313 -0.036,9.5925 -6.6913,16.3955 -17,16.9374 l -87.06249,0 -0.0312,30.0938 87.06249,0.062 c 26.0002,0 47.0625,-21.0935 47.0625,-47.0937 0,-25.9901 -21.0452,-47.0455 -47.0313,-47.0626 l -51.0312,0 -1.5,0 c -9.40425,0 -17.06705,-7.4699 -17.03125,-17.0624 0.036,-9.5926 6.69135,-16.3956 17,-16.9376 l 87.06245,0 0.031,-30.0937 z"
       id="path97"
       inkscape:connector-curvature="0"
       sodipodi:nodetypes="csccscccccsccsccccc" />
    <path
       sodipodi:nodetypes="ccczccccscccccc"
       inkscape:connector-curvature="0"
       id="path104"
       d="m 1322.9687,1579.0607 -0.031,-30 51.0313,-0.062 c 9.4043,0 17.067,-7.4387 17.0312,-17.0313 -0.036,-9.5926 -6.6913,-16.3954 -17,-16.9374 l -51.0625,0 -0.031,-30.0938 51.0626,-0.062 c 26.0002,0 47.0624,21.0934 47.0624,47.0937 0,25.9901 -21.0452,47.0455 -47.0312,47.0626 l 0,0.031 z m -0.031,-64.0312 -0.031,0 z"
       style="fill:#000000;fill-opacity:1;stroke:none" />
    <path
       style="fill:#000000;fill-opacity:1;stroke:none"
       d="m 1042.375,1912.4375 0,123.4375 28.5938,0 1.3124,0 73.5938,-81.6562 0,81.6562 28.5938,0 1.3124,0 74.5,-82.6562 0,-40.7813 -1.0624,0 -74.25,82.6875 0,-82.6875 -29.25,0 -74.25,82.6875 0,-82.6875 z"
       id="path109"
       inkscape:connector-curvature="0"
       sodipodi:nodetypes="ccccccccccccccccc" />
    <path
       style="fill:#000000;fill-opacity:1;stroke:none"
       d="m 92.027894,2282.0145 c -34.55568,0.1529 -62.53125,28.221 -62.53125,62.8125 0,34.5391 27.89166,62.5444 62.375,62.7812 l 0,0.063 121.343746,0 0,-28.0313 -121.187496,-0.062 c -19.06455,-0.1524 -34.46875,-15.6494 -34.46875,-34.75 0,-19.0484 15.3201,-34.4983 34.3125,-34.7342 l 121.343746,0 0,-27.9843 -121.187496,0 z"
       id="path114"
       inkscape:connector-curvature="0"
       sodipodi:nodetypes="cscccccsccccc" />
    <path
       style="fill:#000000;fill-opacity:1;stroke:none"
       d="m -512.8867,2219.1396 c -34.55568,0.1529 -62.53125,28.1744 -62.53125,62.7659 0,34.5391 27.89166,62.5755 62.375,62.8123 l 73.1875,0 0.0625,-79.3752 -76.40625,0.062 0,29.0937 47.3125,0 0,22.1876 -44,-0.031 c -19.06455,-0.1524 -34.46875,-15.6494 -34.46875,-34.75 0,-19.0484 15.3201,-34.5141 34.3125,-34.75 l 73.1875,0 0,-28.0153 z"
       id="path121"
       inkscape:connector-curvature="0"
       sodipodi:nodetypes="csccccccccscccc" />
    <path
       style="fill:#000000;fill-opacity:1;stroke:none"
       d="m -32.125291,2210.375 c -34.55568,0.1529 -62.53125,28.221 -62.53125,62.8125 0,34.5391 27.89166,62.5759 62.375,62.8127 l 73.21204,0 0,-27.9998 -73.05579,-0.062 c -19.06455,-0.1524 -34.46875,-15.6494 -34.46875,-34.75 0,-19.0484 15.3201,-34.4983 34.3125,-34.7342 l 73.21204,0 0,-27.9843 z"
       id="path131"
       inkscape:connector-curvature="0"
       sodipodi:nodetypes="csccccscccc" />
    <path
       style="fill:#000000;fill-opacity:1;stroke:none"
       d="m -434.18618,2220.4074 0,124.125 29.09375,0 0,-47.5313 77.6875,0 0,47.5313 29.09375,0 0,-124.125 -29.09375,0 0,47.5313 -77.6875,0 0,-47.5313 z"
       id="path155"
       inkscape:connector-curvature="0"
       sodipodi:nodetypes="ccccccccccccc" />
    <path
       sodipodi:nodetypes="cczccccsccc"
       id="path161"
       d="m -46.810622,2347.1907 0,63.4226 c -1.60165,21.1378 -15.27719,32.8802 -34.75,34.4688 -19.472808,1.5886 -34.564198,-15.4331 -34.749998,-34.4688 l 0.0625,-63.4226 -28.21875,0 0,63.4226 c 0.18641,34.5268 28.33568,62.5313 62.906248,62.5313 34.59154,0 62.65961,-27.9756 62.8125,-62.5313 l 0,-63.4226 z"
       style="fill:#000000;fill-opacity:1;stroke:none"
       inkscape:connector-curvature="0" />
    <path
       sodipodi:nodetypes="csccccscccc"
       inkscape:connector-curvature="0"
       id="path163"
       d="m -279.19598,2282.0011 c 0.1529,34.5557 28.221,62.5313 62.8125,62.5313 34.5391,0 62.5444,-27.8917 62.7812,-62.375 l 0.063,-61.1913 -28.0313,0 -0.062,61.035 c -0.1524,19.0646 -15.6494,34.4688 -34.75,34.4688 -19.0484,0 -34.4983,-15.3201 -34.7342,-34.3125 l 0,-61.1913 -27.9843,0 z"
       style="fill:#000000;fill-opacity:1;stroke:none" />
    <path
       style="fill:#aa0000;fill-opacity:1;stroke:none"
       d="m 812.54877,2136.9307 -75.0312,82.6563 0,40.7813 75.0312,-82.6876 75.03125,82.6876 0,-40.7813 -75.03125,-82.6563 z"
       id="path167"
       inkscape:connector-curvature="0" />
    <path
       inkscape:connector-curvature="0"
       id="path172"
       d="m 1134.9895,2233.4982 -75.0312,-82.6563 0,-40.7813 75.0312,82.6876 75.0312,-82.6876 0,40.7813 -75.0312,82.6563 z"
       style="fill:#aa0000;fill-opacity:1;stroke:none" />
    <path
       inkscape:connector-curvature="0"
       id="path174"
       d="m 1125.7971,2300.9795 -78.7812,123.4063 31.75,0.031 47.0312,-86.6876 53.0312,86.6876 30.25,-0.031 z"
       style="fill:#aa0000;fill-opacity:1;stroke:none"
       sodipodi:nodetypes="ccccccc" />
    <path
       sodipodi:nodetypes="ccccccc"
       style="fill:#aa0000;fill-opacity:1;stroke:none"
       d="m 1035.2874,2423.7097 -78.7812,-123.4063 31.75,-0.031 47.0312,86.6876 53.0313,-86.6876 30.25,0.031 z"
       id="path176"
       inkscape:connector-curvature="0" />
    <path
       style="fill:#000000;fill-opacity:1;stroke:none"
       d="m 220.1875,2281.625 0,126.4375 29.09375,0 0,-27.3125 52.40625,-0.031 23.84375,27.3437 21.0625,0 0,-21.7813 -96.5,-104.6562 -1.3125,0 z m 29.09375,40.75 26.25,29.25 -26.25,0 z"
       id="path178"
       inkscape:connector-curvature="0"
       sodipodi:nodetypes="ccccccccccccccc" />
    <path
       sodipodi:nodetypes="cccccccccc"
       id="path182"
       d="m 389.51012,2172.7167 0,-123.4375 29.0937,0 0,82.6875 74.25,-82.6875 23.0625,0 0,22.7812 -96.5,100.6563 -1.3125,0 z"
       style="fill:#000000;fill-opacity:1;stroke:none"
       inkscape:connector-curvature="0" />
    <path
       inkscape:connector-curvature="0"
       style="fill:#000000;fill-opacity:1;stroke:none"
       d="m 355.1883,2266.1122 0,33.125 0,92.0625 0,33.125 29.0937,0 0,-0.062 51.0625,0.062 c 26.0004,0 47.0626,-21.0934 47.0626,-47.0938 0,-12.3819 -4.782,-23.6618 -12.5938,-32.0624 7.8118,-8.4007 12.5938,-19.6806 12.5938,-32.0626 0,-26.0003 -21.0622,-47.0937 -47.0626,-47.0937 l -51.0625,0.062 0,-0.062 -29.0937,0 z m 29.0937,30.1563 51.0938,0 c 10.3088,0.542 15.4335,7.2177 17,16.9374 0,9.394 -7.61,17.0144 -17,17.0313 -0.011,0 -0.021,0 -0.031,0 l -51.0001,0 0,-31 -0.062,0 0,-2.9687 z m 0.062,64.0312 51.0001,0 0.031,0 c 9.39,0.017 17,7.6373 17,17.0312 -1.5665,9.7198 -6.6912,16.3955 -17,16.9376 l -51.0938,0 0,-2.9688 0.062,0 0,-31 z"
       id="path185" />
    <path
       sodipodi:nodetypes="ccccccccccccc"
       inkscape:connector-curvature="0"
       id="path187"
       d="m 5.3960481,2608.905 0,29.0625 54.9277899,0 0,95.0625 0.21875,0 28.875,0 0.21875,0 0,-95.0625 53.930612,0 0,-29.0625 -54.149362,0 -28.875,0 z"
       style="fill:#000000;fill-opacity:1;stroke:none" />
    <path
       inkscape:connector-curvature="0"
       style="fill:#000000;fill-opacity:1;stroke:none"
       d="m 157.14346,2608.2799 0,125.2188 29.1562,0 0,-31.0313 41.8126,0 24.1562,31.1876 33.4688,0 -27.875,-35.9063 c 15.6966,-7.6273 26.5,-23.7442 26.5,-42.375 0,-26.0004 -21.0621,-47.0938 -47.0625,-47.0938 l -51.0626,0.062 0,-0.062 -29.0937,0 z m 29.0937,30.1563 51.0938,0 c 10.3088,0.5421 15.4335,7.2178 17,16.9375 0,9.4045 -7.6268,17.0313 -17.0312,17.0313 l -51.0313,0.062 -0.031,-34.0312 z"
       id="path189" />
    <path
       id="path191"
       d="m 359.10902,2608.155 c -34.6862,0 -62.7813,28.1263 -62.7813,62.8125 0,34.6862 28.0951,62.8125 62.7813,62.8125 34.6861,0 62.8125,-28.1263 62.8125,-62.8125 0,-34.6862 -28.1264,-62.8125 -62.8125,-62.8125 z m 0,28.0625 c 19.1952,0 34.7812,15.5547 34.7812,34.75 0,19.1953 -15.586,34.75 -34.7812,34.75 -19.1953,0 -34.75,-15.5547 -34.75,-34.75 0,-19.1953 15.5547,-34.75 34.75,-34.75 z"
       style="fill:#000000;fill-opacity:1;stroke:none"
       inkscape:connector-curvature="0" />
    <use
       x="0"
       y="0"
       xlink:href="#path3006"
       id="use193"
       transform="translate(-873.98398,1323.176)"
       width="744.09448"
       height="1052.3622" />
    <path
       sodipodi:nodetypes="csccccscccc"
       inkscape:connector-curvature="0"
       id="path195"
       d="m 639.87471,2608.1548 c -34.55568,0.153 -62.53125,28.2211 -62.53125,62.8125 0,34.5391 27.89166,62.5759 62.375,62.8128 l 73.21204,0 0,-27.9999 -73.05579,-0.062 c -19.06455,-0.1523 -34.46875,-15.6493 -34.46875,-34.75 0,-19.0483 15.3201,-34.4983 34.3125,-34.7341 l 73.21204,0 0,-27.9843 z"
       style="fill:#000000;fill-opacity:1;stroke:none" />
    <path
       sodipodi:nodetypes="ccccccccccccccc"
       inkscape:connector-curvature="0"
       id="path197"
       d="m 724.1875,2607.7486 0,126.4375 29.09375,0 0,-27.3125 52.40625,-0.031 23.84375,27.3437 21.0625,0 0,-21.7813 -96.5,-104.6562 -1.3125,0 z m 29.09375,40.75 26.25,29.25 -26.25,0 z"
       style="fill:#000000;fill-opacity:1;stroke:none" />
    <path
       sodipodi:nodetypes="ccccccccccccc"
       inkscape:connector-curvature="0"
       id="path199"
       d="m 813.56553,2608.905 0,29.0625 54.92779,0 0,95.0625 0.21875,0 28.875,0 0.21875,0 0,-95.0625 53.93061,0 0,-29.0625 -54.14936,0 -28.875,0 z"
       style="fill:#000000;fill-opacity:1;stroke:none" />
    <path
       inkscape:connector-curvature="0"
       sodipodi:nodetypes="cccccccsccc"
       id="path201"
       d="m 1058.9072,2607.9906 0,63.4225 c -1.6017,21.1378 -15.0071,31.3017 -34.75,34.4688 -19.0797,0 -34.56424,-15.4331 -34.75004,-34.4688 l 0.062,-63.4225 -28.2188,0 0,63.4225 c 0.1864,34.5268 28.3357,62.5313 62.90634,62.5313 34.5915,0 62.6596,-27.9756 62.8125,-62.5313 l 0,-63.4225 -28.0625,0 z"
       style="fill:#000000;fill-opacity:1;stroke:none" />
    <path
       inkscape:connector-curvature="0"
       style="fill:#000000;fill-opacity:1;stroke:none"
       d="m 1098.4988,2608.2799 0,125.2188 29.1562,0 0,-31.0313 41.8126,0 24.1562,31.1876 33.4688,0 -27.875,-35.9063 c 15.6966,-7.6273 26.5,-23.7442 26.5,-42.375 0,-26.0004 -21.0621,-47.0938 -47.0625,-47.0938 l -51.0626,0.062 0,-0.062 -29.0937,0 z m 29.0937,30.1563 51.0938,0 c 10.3088,0.5421 15.4335,7.2178 17,16.9375 0,9.4045 -7.6268,17.0313 -17.0312,17.0313 l -51.0313,0.062 -0.031,-34.0312 z"
       id="path203" />
    <path
       inkscape:connector-curvature="0"
       style="fill:#000000;fill-opacity:1;stroke:none"
       d="m 1239.1065,2608.905 0,124.125 29.0937,0 106.7813,0 0,-29.0938 -106.7813,0 0,-18.4375 106.7813,0 0,-29.0625 -106.7813,0 0,-18.4375 106.7813,0 0,-29.0937 -106.7813,0 -29.0937,0 z"
       id="path205" />
    <path
       style="fill:#000000;fill-opacity:1;stroke:none"
       d="m 2186.0679,2594.2261 -51.0312,0.062 0,30.0938 51.0625,0 c 10.3088,0.542 15.4335,7.2178 17,16.9375 0,9.394 -7.61,17.0143 -17,17.0313 l -0.031,0 -51.0312,0 0,30.0624 51.0312,0 0.031,0 c 9.39,0.017 17,7.6374 17,17.0313 -1.5665,9.7198 -6.6912,16.3954 -17,16.9375 l -51.0625,0 0,30.0938 51.0312,0.062 c 26.0005,0 47.0626,-21.0933 47.0626,-47.0937 0,-12.3819 -4.782,-23.6619 -12.5938,-32.0625 7.8118,-8.4007 12.5937,-19.6805 12.5938,-32.0625 0,-26.0003 -21.0622,-47.0938 -47.0626,-47.0937 z"
       id="path207"
       inkscape:connector-curvature="0"
       sodipodi:nodetypes="ccccccccccccccccscsc" />
    <path
       style="fill:#000000;fill-opacity:1;stroke:none"
       d="m 1957.6275,2364.0713 0,33.125 0,92.0625 0,33.125 -29.0937,0 0,-0.062 -51.0625,0.062 c -26.0004,0 -47.0626,-21.0934 -47.0626,-47.0938 0,-12.3819 4.782,-23.6618 12.5938,-32.0624 -7.8118,-8.4007 -12.5938,-19.6806 -12.5938,-32.0626 0,-26.0003 21.0622,-47.0937 47.0626,-47.0937 l 51.0625,0.062 0,-0.062 29.0937,0 z m -29.0937,30.1563 -51.0938,0 c -10.3088,0.542 -15.4335,7.2177 -17,16.9374 0,9.394 7.61,17.0144 17,17.0313 0.011,0 0.021,0 0.031,0 l 51.0001,0 0,-31 0.062,0 0,-2.9687 z m -0.062,64.0312 -51.0001,0 -0.031,0 c -9.39,0.017 -17,7.6373 -17,17.0312 1.5665,9.7198 6.6912,16.3955 17,16.9376 l 51.0938,0 0,-2.9688 -0.062,0 0,-31 z"
       id="path209"
       inkscape:connector-curvature="0" />
    <path
       style="fill:#000000;fill-opacity:1;stroke:none"
       d="m 1546.375,2591.125 c -26.0004,-1e-4 -47.0625,21.0934 -47.0625,47.0938 10e-5,12.382 4.782,23.6617 12.5937,32.0624 -7.8118,8.4006 -12.5937,19.6807 -12.5937,32.0626 0,26.0004 21.062,47.0937 47.0625,47.0937 l 101.5312,0 c 26.0006,0 47.0626,-21.0933 47.0626,-47.0937 0,-12.3819 -4.782,-23.662 -12.5938,-32.0626 7.8118,-8.4007 12.5936,-19.6804 12.5938,-32.0624 0,-26.0004 -21.0622,-47.0939 -47.0626,-47.0938 -33.8438,0.107 -67.6874,0.042 -101.5312,0 z m -0.031,30.1562 c 33.8646,0 67.7291,0 101.5937,0 10.3088,0.542 17.0267,7.3502 17,16.9376 -0.027,9.5874 -7.61,17.0142 -17,17.0312 l -0.031,0 c -33.8437,0 -67.6875,0 -101.5312,0 l -0.031,0 c -9.3901,-0.017 -17.1228,-7.4438 -17,-17.0312 0.1228,-9.5874 6.6911,-16.3956 17,-16.9376 z m 101.5934,64.0313 c 9.39,0.017 17.0358,7.5689 17,17.0313 -0.036,9.4624 -6.6912,16.3953 -17,16.9374 l -101.5937,0 c -10.3089,-0.5421 -16.8248,-6.475 -17.1105,-16.9374 -0.2857,-10.4624 7.9849,-17.0143 17.375,-17.0313 33.9014,0 67.4278,0 101.3292,0 z"
       id="path217"
       inkscape:connector-curvature="0"
       sodipodi:nodetypes="cscsccscccccczcccczccczcczcc" />
    <path
       id="path222"
       d="m 1870.2479,2615.3156 c -34.6862,0 -62.7813,28.1263 -62.7813,62.8125 0,34.6862 28.0951,62.8125 62.7813,62.8125 34.6861,0 62.8125,-28.1263 62.8125,-62.8125 0,-34.6862 -28.1264,-62.8125 -62.8125,-62.8125 z m 0,28.0625 c 19.1952,0 34.7812,15.5548 34.7812,34.75 0,19.1953 -15.586,34.75 -34.7812,34.75 -19.1953,0 -34.75,-15.5547 -34.75,-34.75 0,-19.1952 15.5547,-34.75 34.75,-34.75 z"
       style="fill:#000000;fill-opacity:1;stroke:none"
       inkscape:connector-curvature="0" />
    <path
       style="fill:#000000;fill-opacity:1;stroke:none"
       d="m 1955.3167,2608.7823 0,124.1241 29.1477,0 -0.056,-124.1241 -29.0915,0 z"
       id="path231"
       inkscape:connector-curvature="0"
       sodipodi:nodetypes="ccccc" />
    <path
       inkscape:connector-curvature="0"
       style="fill:#000000;fill-opacity:1;stroke:none"
       d="m 2291.4233,2902.6296 123.4375,0 0,-29.0936 -82.6875,0 82.6875,-74.25 0,-0.046 -40.7811,0 -82.6564,73.4835 0,1.3125 z"
       id="path233"
       sodipodi:nodetypes="cccccccccc" />
    <path
       style="fill:#000000;fill-opacity:1;stroke:none"
       d="m 2790.9672,2474.3628 -0.031,-30 51.0313,-0.062 c 9.4043,0 17.067,-7.4387 17.0312,-17.0313 -0.036,-9.5926 -6.6913,-16.3954 -17,-16.9374 l -51.0625,0 -0.031,-30.0938 51.0626,-0.062 c 26.0002,0 47.0624,21.0934 47.0624,47.0937 0,25.9901 -21.0452,47.0455 -47.0312,47.0626 l 0,0.031 z m -0.031,-64.0312 -0.031,0 z"
       id="path235"
       inkscape:connector-curvature="0"
       sodipodi:nodetypes="ccczccccscccccc" />
    <path
       style="fill:#000000;fill-opacity:1;stroke:none"
       d="m 2070.8438,2601.7188 -63.7905,0.062 0.031,30.0938 63.7904,0 c 10.3087,0.542 16.964,7.3449 17,16.9375 0.036,9.5926 -7.627,17.0313 -17.0312,17.0313 l -17.0626,0.062 -15.8437,14.1563 -0.031,0 -35.6562,32.125 0,29.5 123.4375,0 0,-29.5 -82.6875,0 18.5938,-16.2813 9.2812,0 0,-0.031 c 25.986,-0.017 47.0312,-21.0724 47.0312,-47.0625 0,-26.0003 -21.0623,-47.0938 -47.0624,-47.0937 z"
       id="path237"
       inkscape:connector-curvature="0"
       sodipodi:nodetypes="ccccsccccccccccccscc" />
    <path
       sodipodi:nodetypes="ccccc"
       id="path242"
       d="m 2155.0922,3004.2363 82.6875,-73.8437 -40.7811,-0.046 -82.6564,73.8897 z"
       style="fill:#ff0000;fill-opacity:1;stroke:none"
       inkscape:connector-curvature="0" />
    <path
       style="fill:#000000;fill-opacity:1;stroke:none"
       d="m 2299.75,2602.875 -51.9375,70.6562 0,29.5 94.5313,0 0,41.1876 29.1562,0 -0.062,-124.125 -29.0937,0 0,53.4374 -53.7813,0 52.5,-70.6562 -41.3125,0 z"
       id="path251"
       inkscape:connector-curvature="0" />
    <path
       sodipodi:nodetypes="ccccccccccsc"
       inkscape:connector-curvature="0"
       id="path253"
       d="m 2287.3438,2949.2188 -51.0626,0.062 0.031,30.0938 51.0625,0 c 10.3087,0.542 16.964,7.3449 17,16.9375 0.036,9.5926 -7.6269,17.0313 -17.0312,17.0313 l -17.0626,0.062 -33.5937,30 50.6875,0 0,-0.031 c 25.986,-0.017 47.0312,-21.0724 47.0312,-47.0625 0,-26.0003 -21.0623,-47.0937 -47.0624,-47.0937 z"
       style="fill:#000000;fill-opacity:1;stroke:none" />
    <path
       sodipodi:nodetypes="ccccsccccccccccccscc"
       inkscape:connector-curvature="0"
       id="path256"
       d="m 2455.8438,2749.6861 -71.0626,-0.062 0.031,-30.0938 71.0625,0 c 10.3087,-0.542 16.964,-7.3449 17,-16.9375 0.036,-9.5926 -7.627,-17.0313 -17.0312,-17.0313 l -17.0626,-0.062 -15.8437,-14.1563 -0.031,0 -35.6562,-32.125 0,-29.5 123.4375,0 0,29.5 -82.6875,0 18.5938,16.2813 9.2812,0 0,0.031 c 25.986,0.017 47.0312,21.0724 47.0312,47.0625 0,26.0003 -21.0623,47.0938 -47.0624,47.0937 z"
       style="fill:#000000;fill-opacity:1;stroke:none" />
    <path
       sodipodi:nodetypes="cscsccscccccczcccczccczcczcc"
       inkscape:connector-curvature="0"
       id="path258"
       d="m 2848.9635,2600.3174 c -26.0004,-10e-5 -47.0625,21.0934 -47.0625,47.0938 1e-4,12.382 4.782,23.6617 12.5937,32.0624 -7.8118,8.4006 -12.5937,19.6807 -12.5937,32.0626 0,26.0004 21.062,47.0937 47.0625,47.0937 l 41.5312,0 c 26.0006,0 47.0626,-21.0933 47.0626,-47.0937 0,-12.3819 -4.782,-23.662 -12.5938,-32.0626 7.8118,-8.4007 12.5936,-19.6804 12.5938,-32.0624 0,-26.0004 -21.0622,-47.0939 -47.0626,-47.0938 -33.8438,0.107 -7.6874,0.042 -41.5312,0 z m -0.031,30.1562 c 33.8646,0 7.7291,0 41.5937,0 10.3088,0.542 17.0267,7.3502 17,16.9376 -0.027,9.5874 -7.61,17.0142 -17,17.0312 l -0.031,0 c -33.8437,0 -7.6875,0 -41.5312,0 l -0.031,0 c -9.3901,-0.017 -17.1228,-7.4438 -17,-17.0312 0.1228,-9.5874 6.6911,-16.3956 17,-16.9376 z m 41.5934,64.0313 c 9.39,0.017 17.0358,7.5689 17,17.0313 -0.036,9.4624 -6.6912,16.3953 -17,16.9374 l -41.5937,0 c -10.3089,-0.5421 -16.8248,-6.475 -17.1105,-16.9374 -0.2857,-10.4624 7.9849,-17.0143 17.375,-17.0313 33.9014,0 7.4278,0 41.3292,0 z"
       style="fill:#000000;fill-opacity:1;stroke:none" />
    <path
       style="fill:#ff0000;fill-opacity:1;stroke:none"
       d="m 2099.6128,2840.8057 -35.6563,31.7187 0,1.3126 0,28.5937 123.4375,0 0,-29.0937 -82.6875,0 36.2187,-32.5313 -41.3124,0 z"
       id="path260"
       inkscape:connector-curvature="0" />
    <path
       sodipodi:nodetypes="cccccccc"
       style="fill:#ff0000;fill-opacity:1;stroke:none"
       d="m 2184.8155,3066.7523 -35.6563,32.125 0,29.5 123.4375,0 0,-29.5 -82.6875,0 36.2187,-32.125 z"
       id="path264"
       inkscape:connector-curvature="0" />
    <path
       sodipodi:nodetypes="cccccccc"
       style="fill:#000000;fill-opacity:1;stroke:none"
       d="m 2726.658,2750.3774 69.9198,-116.6623 0,-30.5858 -123.4375,0 0,30.5858 84.6875,0 -70.4822,116.6623 z"
       id="path266"
       inkscape:connector-curvature="0" />
    <path
       sodipodi:nodetypes="ccccccccccccccccscsc"
       inkscape:connector-curvature="0"
       id="path269"
       d="m 2456.0679,2923.2261 -51.0312,0.062 0,30.0938 51.0625,0 c 10.3088,0.542 15.4335,7.2178 17,16.9375 0,9.394 -7.61,17.0143 -17,17.0313 l -0.031,0 -51.0312,0 0,30.0624 51.0312,0 0.031,0 c 9.39,0.017 17,7.6374 17,17.0313 -1.5665,9.7198 -6.6912,16.3954 -17,16.9375 l -51.0625,0 0,30.0938 51.0312,0.062 c 26.0005,0 47.0626,-21.0933 47.0626,-47.0937 0,-12.3819 -4.782,-23.6619 -12.5938,-32.0625 7.8118,-8.4007 12.5937,-19.6805 12.5938,-32.0625 0,-26.0003 -21.0622,-47.0938 -47.0626,-47.0937 z"
       style="fill:#000000;fill-opacity:1;stroke:none" />
    <path
       style="fill:#000000;fill-opacity:1;stroke:none"
       d="m 2634.0621,2757.5312 c 26.0002,0 47.0626,-21.0935 47.0626,-47.0937 0,-25.9901 -21.0453,-47.0454 -47.0313,-47.0626 l 0,-0.031 -8.0937,0 0,-0.031 -51.0313,0 -0.031,0 c -9.3899,-0.017 -17,-7.6374 -17,-17.0313 1.5665,-9.7198 6.6913,-16.3954 17,-16.9375 l 51.0626,0 0,-30.0938 -51.0313,-0.062 c -26.0005,0 -47.0625,21.0933 -47.0625,47.0937 0,12.3819 4.782,23.6619 12.5938,32.0625 -7.8118,8.4007 -12.5937,19.6805 -12.5938,32.0625 0,26.0003 21.0621,47.0938 47.0625,47.0937 l 16.7813,-0.031 42.3124,0.062 z m 0.031,-30.1563 -8.0937,0 0,-0.031 -51.0626,0 c -10.3087,-0.542 -15.4335,-7.2178 -17,-16.9375 0,-9.394 7.6101,-17.0142 17,-17.0313 l 0.031,0 33.5625,0 25.5312,0.031 c 9.4044,0 17.0671,7.4387 17.0313,17.0313 -0.036,9.5925 -6.6913,16.3955 -17,16.9374 z"
       id="path271"
       inkscape:connector-curvature="0" />
    <path
       inkscape:connector-curvature="0"
       id="path276"
       d="m 3003.4368,2596.4314 c -26.0002,0 -47.0626,21.0935 -47.0626,47.0937 0,25.9901 21.0453,47.0454 47.0313,47.0626 l 0,0.031 8.0937,0 0,0.031 51.0313,0 0.031,0 c 9.3899,0.017 17,7.6374 17,17.0313 -1.5665,9.7198 -6.6913,16.3954 -17,16.9375 l -51.0626,0 0,30.0938 51.0313,0.062 c 26.0005,0 47.0625,-21.0933 47.0625,-47.0937 0,-12.3819 -4.782,-23.6619 -12.5938,-32.0625 7.8118,-8.4007 12.5937,-19.6805 12.5938,-32.0625 0,-26.0003 -21.0621,-47.0938 -47.0625,-47.0937 l -16.7813,0.031 -42.3124,-0.062 z m -0.031,30.1563 8.0937,0 0,0.031 51.0626,0 c 10.3087,0.542 15.4335,7.2178 17,16.9375 0,9.394 -7.6101,17.0142 -17,17.0313 l -0.031,0 -33.5625,0 -25.5312,-0.031 c -9.4044,0 -17.0671,-7.4387 -17.0313,-17.0313 0.036,-9.5925 6.6913,-16.3955 17,-16.9374 z"
       style="fill:#000000;fill-opacity:1;stroke:none" />
    <path
       sodipodi:nodetypes="ccccccccccccccc"
       inkscape:connector-curvature="0"
       id="path142"
       d="m 995.3187,2893.5358 0,126.4375 29.0937,0 0,-27.3125 52.4063,-0.031 23.8437,27.3437 21.0625,0 0,-21.7813 -96.5,-104.6562 -1.3125,0 z m 29.0937,40.75 26.25,29.25 -26.25,0 z"
       style="fill:#000000;fill-opacity:1;stroke:none" />
    <path
       id="path144"
       d="m 1149.9763,2902.5083 0,33.125 0,92.0625 0,33.125 29.0937,0 0,-0.062 51.0625,0.062 c 26.0004,0 47.0626,-21.0934 47.0626,-47.0938 0,-12.3819 -4.782,-23.6618 -12.5938,-32.0624 7.8118,-8.4007 12.5938,-19.6806 12.5938,-32.0626 0,-26.0003 -21.0622,-47.0937 -47.0626,-47.0937 l -51.0625,0.062 0,-0.062 -29.0937,0 z m 29.0937,30.1563 51.0938,0 c 10.3088,0.542 15.4335,7.2177 17,16.9374 0,9.394 -7.61,17.0144 -17,17.0313 -0.011,0 -0.021,0 -0.031,0 l -51.0001,0 0,-31 -0.062,0 0,-2.9687 z m 0.062,64.0312 51.0001,0 0.031,0 c 9.39,0.017 17,7.6373 17,17.0312 -1.5665,9.7198 -6.6912,16.3955 -17,16.9376 l -51.0938,0 0,-2.9688 0.062,0 0,-31 z"
       style="fill:#000000;fill-opacity:1;stroke:none"
       inkscape:connector-curvature="0" />
    <path
       style="fill:#000000;fill-opacity:1;stroke:none"
       d="m 1363.9521,2927.7671 c -34.5557,0.153 -62.5313,28.2211 -62.5313,62.8125 0,34.5391 27.8917,62.5759 62.375,62.8128 l 73.212,0 0,-27.9999 -73.0557,-0.062 c -19.0646,-0.1523 -34.4688,-15.6493 -34.4688,-34.75 0,-19.0483 15.3201,-34.4983 34.3125,-34.7341 l 73.212,0 0,-27.9843 z"
       id="path146"
       inkscape:connector-curvature="0"
       sodipodi:nodetypes="csccccscccc" />
    <path
       id="path153"
       d="m 1083.1065,3098.905 0,124.125 29.0937,0 106.7813,0 0,-29.0938 -106.7813,0 0,-18.4375 106.7813,0 0,-29.0625 -106.7813,0 0,-18.4375 106.7813,0 0,-29.0937 -106.7813,0 -29.0937,0 z"
       style="fill:#000000;fill-opacity:1;stroke:none"
       inkscape:connector-curvature="0" />
    <path
       inkscape:connector-curvature="0"
       style="fill:#000000;fill-opacity:1;stroke:none"
       d="m 1257.3331,3106.1259 0,124.125 29.0937,0 0,-47.5 106.7813,0 0,-29.0939 -106.7813,0 0,-18.4374 106.7813,0 0,-29.0938 -135.875,0 z"
       id="path156" />
    <path
       sodipodi:nodetypes="csccccccccscccc"
       inkscape:connector-curvature="0"
       id="path158"
       d="m 1475.1133,3103.1396 c -34.5557,0.1529 -62.5312,28.1744 -62.5312,62.7659 0,34.5391 27.8916,62.5755 62.375,62.8123 l 73.1875,0 0.062,-79.3752 -76.4063,0.062 0,29.0937 47.3125,0 0,22.1876 -44,-0.031 c -19.0645,-0.1524 -34.4687,-15.6494 -34.4687,-34.75 0,-19.0484 15.3201,-34.5141 34.3125,-34.75 l 73.1875,0 0,-28.0153 z"
       style="fill:#000000;fill-opacity:1;stroke:none" />
    <path
       sodipodi:nodetypes="ccccccccccccc"
       inkscape:connector-curvature="0"
       id="path160"
       d="m 1553.8138,3104.4074 0,124.125 29.0938,0 0,-47.5313 77.6875,0 0,47.5313 29.0937,0 0,-124.125 -29.0937,0 0,47.5313 -77.6875,0 0,-47.5313 z"
       style="fill:#000000;fill-opacity:1;stroke:none" />
    <path
       style="fill:#000000;fill-opacity:1;stroke:none"
       d="m 970.25266,3279.2979 0,124.1241 29.14773,0 -0.056,-124.1241 -29.09149,0 z"
       id="path162"
       inkscape:connector-curvature="0"
       sodipodi:nodetypes="ccccc" />
    <path
       style="fill:#000000;fill-opacity:1;stroke:none"
       d="m 1012.2354,3344.3234 c 0.1529,34.5557 28.221,62.5313 62.8125,62.5313 34.5391,0 62.5444,-27.8917 62.7812,-62.375 l 0.063,-61.1913 -28.0313,0 -0.062,61.035 c -0.1524,19.0646 -15.6494,34.4688 -34.75,34.4688 -19.0484,0 -34.4983,-15.3201 -34.7342,-34.3125 z"
       id="path164"
       inkscape:connector-curvature="0"
       sodipodi:nodetypes="csccccscc" />
    <path
       style="fill:#000000;fill-opacity:1;stroke:none"
       d="m 2890.9484,3482.4593 0,123.4375 28.5938,0 1.3124,0 26.0313,-28.9062 0.031,1.3437 48.375,53.875 0,-41.8437 -30.2188,-33.5313 30.2188,-33.5313 0,-40.8437 -1,0 -74.25,82.6875 0,-82.6875 -29.0938,0 z"
       id="path166"
       inkscape:connector-curvature="0" />
    <path
       sodipodi:nodetypes="ccccccc"
       id="path170"
       d="m 1930.0966,3131.4573 74.25,82.6875 1.0625,0 0,-40.7812 -74.5,-82.6563 -1.3125,0 z"
       style="fill:#000000;fill-opacity:1;stroke:none"
       inkscape:connector-curvature="0" />
    <path
       sodipodi:nodetypes="ccccccc"
       inkscape:connector-curvature="0"
       id="path177"
       d="m 1299.6913,3284.0692 0,124.1242 135.8776,0 0,-29.0915 -106.7861,0 0,-95.0327 z"
       style="fill:#000000;fill-opacity:1;stroke:none" />
    <path
       style="fill:#000000;fill-opacity:1;stroke:none"
       d="m 1439.7041,3285.2154 0,123.4265 29.0914,0 0,-82.6682 37.1522,41.3038 0.3333,0.3939 0.3637,-0.3636 40.3037,-41.728 0,83.0621 29.0915,0 0,-123.4265 -28.9097,0 -1.3333,0 -39.4856,40.8492 -36.7279,-40.8492 -1.3031,0 -28.5762,0 z"
       id="path179"
       inkscape:connector-curvature="0" />
    <path
       sodipodi:nodetypes="ccccccccccccc"
       id="path181"
       d="m 1586.6162,3285.7707 0,123.4375 29.0937,0 0,-82.6875 74.25,82.6875 1.3125,0 28.5938,0 0,-123.4375 -29.0938,0 0,82.6563 -74.25,-82.6563 -1.3125,0 -28.5937,0 z"
       style="fill:#000000;fill-opacity:1;stroke:none"
       inkscape:connector-curvature="0" />
    <path
       inkscape:connector-curvature="0"
       style="fill:#000000;fill-opacity:1;stroke:none"
       d="m 1795.95,3281.3207 c -34.6862,0 -62.7813,28.1263 -62.7813,62.8125 0,34.6862 28.0951,62.8125 62.7813,62.8125 34.6861,0 62.8125,-28.1263 62.8125,-62.8125 0,-34.6862 -28.1264,-62.8125 -62.8125,-62.8125 z m 0,28.0625 c 19.1952,0 34.7812,15.5547 34.7812,34.75 0,19.1953 -15.586,34.75 -34.7812,34.75 -19.1953,0 -34.75,-15.5547 -34.75,-34.75 0,-19.1953 15.5547,-34.75 34.75,-34.75 z"
       id="path183" />
    <path
       style="fill:#000000;fill-opacity:1;stroke:none"
       d="M 2073.125 3283.0625 C 2038.4388 3283.0625 2010.3438 3311.1888 2010.3438 3345.875 C 2010.3438 3380.5612 2038.4388 3408.6875 2073.125 3408.6875 C 2083.0059 3408.6875 2092.3698 3406.41 2100.6875 3402.3438 L 2141.5312 3447.8438 L 2142.5938 3447.8438 L 2142.5938 3407.0625 L 2122.4688 3384.75 C 2130.9029 3374.0571 2135.9375 3360.5485 2135.9375 3345.875 C 2135.9375 3311.1888 2107.8111 3283.0625 2073.125 3283.0625 z M 2073.125 3311.125 C 2092.3202 3311.125 2107.9063 3326.6797 2107.9062 3345.875 C 2107.9062 3352.2419 2106.1799 3358.2127 2103.1875 3363.3438 L 2068.0938 3324.4062 L 2066.7812 3324.4062 L 2067.2812 3365.1562 L 2080.4688 3379.8438 C 2078.1055 3380.3506 2075.639 3380.625 2073.125 3380.625 C 2053.9297 3380.625 2038.375 3365.0703 2038.375 3345.875 C 2038.375 3326.6797 2053.9297 3311.125 2073.125 3311.125 z "
       id="path196" />
    <path
       id="path202"
       d="m 2159.159,3287.1024 0,125.2188 29.1562,0 0,-31.0313 41.8126,0 24.1562,31.1876 33.4688,0 -27.875,-35.9063 c 15.6966,-7.6273 26.5,-23.7442 26.5,-42.375 0,-26.0004 -21.0621,-47.0938 -47.0625,-47.0938 l -51.0626,0.062 0,-0.062 -29.0937,0 z m 29.0937,30.1563 51.0938,0 c 10.3088,0.5421 15.4335,7.2178 17,16.9375 0,9.4045 -7.6268,17.0313 -17.0312,17.0313 l -51.0313,0.062 -0.031,-34.0312 z"
       style="fill:#000000;fill-opacity:1;stroke:none"
       inkscape:connector-curvature="0" />
    <path
       sodipodi:nodetypes="cscccccccsccccccc"
       inkscape:connector-curvature="0"
       id="path204"
       d="m 2350.7115,3268.0717 c -26.0002,0 -47.0625,21.0935 -47.0625,47.0938 0,25.99 21.0453,47.0611 47.0312,47.0781 l 52.5313,0.016 c 9.4038,0.098 17.067,7.4387 17.0312,17.0313 -0.036,9.5925 -6.6913,16.3955 -17,16.9374 l -87.0624,0 -0.031,30.0938 87.0624,0.062 c 26.0002,0 47.0625,-21.0935 47.0625,-47.0937 0,-25.9901 -21.0452,-47.0455 -47.0313,-47.0626 l -52.5312,0 c -9.4042,0 -17.067,-7.4699 -17.0312,-17.0624 0.036,-9.5926 6.6913,-16.3956 17,-16.9376 l 87.0624,0 0.031,-30.0937 z"
       style="fill:#000000;fill-opacity:1;stroke:none" />
    <path
       style="fill:#000000;fill-opacity:1;stroke:none"
       d="M 1167.2812 3280.25 L 1167.2812 3403.6875 L 1195.875 3403.6875 L 1197.1875 3403.6875 L 1218.4375 3380.125 L 1292.2812 3462.3438 L 1293.3438 3462.3438 L 1293.3438 3421.5625 L 1237.2188 3359.2812 L 1271.6875 3321.0312 L 1271.6875 3280.25 L 1270.625 3280.25 L 1217.9688 3338.9062 L 1217.5312 3338.9062 L 1217.5312 3339.375 L 1196.375 3362.9375 L 1196.375 3280.25 L 1167.2812 3280.25 z "
       id="path206" />
    <path
       inkscape:connector-curvature="0"
       style="fill:#000000;fill-opacity:1;stroke:none"
       d="m 2067.4252,2416.5599 0,-123.4375 29.0937,0 0,82.6875 74.25,-82.6875 1.0625,0 0,40.7812 -74.5,82.6563 -1.3125,0 z"
       id="path210"
       sodipodi:nodetypes="cccccccccc" />
    <path
       style="fill:#000000;fill-opacity:1;stroke:none"
       d="m 969.8897,3460.2616 0,29.0625 54.9278,0 0,95.0625 0.2187,0 28.875,0 0.2188,0 0,-95.0625 53.9306,0 0,-29.0625 -54.1494,0 -28.875,0 z"
       id="path213"
       inkscape:connector-curvature="0"
       sodipodi:nodetypes="ccccccccccccc" />
    <path
       style="fill:#000000;fill-opacity:1;stroke:none"
       d="m 1217.2991,3462.1756 0,63.4225 c -1.6017,21.1378 -15.0071,31.3017 -34.75,34.4688 -19.0797,0 -34.5642,-15.4331 -34.75,-34.4688 l 0.062,-63.4225 -28.2188,0 0,63.4225 c 0.1864,34.5268 28.3357,62.5313 62.9063,62.5313 34.5915,0 62.6596,-27.9756 62.8125,-62.5313 l 0,-63.4225 -28.0625,0 z"
       id="path215"
       sodipodi:nodetypes="cccccccsccc"
       inkscape:connector-curvature="0" />
    <path
       sodipodi:nodetypes="cccccccccc"
       id="path218"
       d="m 1264.1519,3587.5287 0,-123.4375 29.0937,0 0,82.6875 74.25,-82.6875 1.0625,0 0,40.7812 -74.5,82.6563 -1.3125,0 z"
       style="fill:#000000;fill-opacity:1;stroke:none"
       inkscape:connector-curvature="0" />
    <path
       sodipodi:nodetypes="ccccccccccccccccc"
       inkscape:connector-curvature="0"
       id="path220"
       d="m 1381.7863,3468.0724 0,123.4375 28.5938,0 1.3124,0 73.5938,-81.6562 0,81.6562 28.5938,0 1.3124,0 74.5,-82.6562 0,-40.7813 -1.0624,0 -74.25,82.6875 0,-82.6875 -29.25,0 -74.25,82.6875 0,-82.6875 z"
       style="fill:#000000;fill-opacity:1;stroke:none" />
    <path
       style="fill:#000000;fill-opacity:1;stroke:none"
       d="m 1595.5938,3469.7188 0.5,40.75 18.5937,20.7187 -19.0937,21.1875 0,40.7812 1.0624,0 36.8438,-41.0312 36.8438,41.0312 1.0624,0 0,-40.7812 -19.0937,-21.1875 18.5937,-20.7187 0.5,-40.75 -1.3124,0 -36.5938,40.5937 -36.5938,-40.5937 -1.3124,0 z"
       id="path223"
       inkscape:connector-curvature="0" />
    <path
       style="fill:#000000;fill-opacity:1;stroke:none"
       d="M 1673.9688 3447.4375 L 1674.4688 3488.1875 L 1727.375 3547.0938 L 1699.2812 3593.5938 L 1738.5938 3593.5938 L 1808.5 3476.9375 L 1769.75 3476.9375 L 1742.5 3522.0312 L 1675.2812 3447.4375 L 1673.9688 3447.4375 z "
       id="path225" />
    <path
       style="fill:#000000;fill-opacity:1;stroke:none"
       d="m 1830.0312,3477.625 0,29.0938 72.1563,0 -52.8125,87.4062 123.875,-0.062 0,-29.1563 -67.0938,0.031 52.4376,-87.4687 z"
       id="path227"
       inkscape:connector-curvature="0"
       sodipodi:nodetypes="ccccccccc" />
    <path
       inkscape:connector-curvature="0"
       style="fill:#000000;fill-opacity:1;stroke:none"
       d="m 2092.9091,3174.4573 -74.25,82.6875 -1.0625,0 0,-40.7812 74.5,-82.6563 1.3125,0 z"
       id="path232"
       sodipodi:nodetypes="ccccccc" />
    <path
       style="fill:#000000;fill-opacity:1;stroke:none"
       d="m 1783.3777,3212.9199 124.1241,0 0,-29.1477 -124.1241,0.056 0,29.0915 z"
       id="path241"
       inkscape:connector-curvature="0"
       sodipodi:nodetypes="ccccc" />
    <use
       x="0"
       y="0"
       xlink:href="#path232"
       id="use245"
       transform="translate(-251.73002,-205.06096)"
       width="744.09448"
       height="1052.3622" />
    <path
       style="fill:#000000;fill-opacity:1;stroke:none"
       d="m 1296.2491,3726.4106 -34.0626,43.9063 33.4688,0 34,-43.9063 -33.4062,0 z"
       id="path254"
       inkscape:connector-curvature="0" />
    <path
       style="fill:#000000;fill-opacity:1;stroke:none"
       d="m 1227.9834,3782.3481 0,124.125 29.0937,0 106.7813,0 0,-29.0938 -106.7813,0 0,-18.4374 106.7813,0 0,-29.0626 -106.7813,0 0,-18.4374 106.7813,0 0,-29.0938 -106.7813,0 -29.0937,0 z"
       id="path250"
       inkscape:connector-curvature="0" />
    <path
       id="path257"
       d="m 1592.2938,3726.3395 -34.0626,43.9063 33.4688,0 34,-43.9063 -33.4062,0 z"
       style="fill:#000000;fill-opacity:1;stroke:none"
       inkscape:connector-curvature="0" />
    <path
       style="fill:#000000;fill-opacity:1;stroke:none"
       d="m 1384.0853,3782.313 0,123.9626 29.0937,0 0,-24.8376 52.4063,-0.031 23.8437,24.8688 21.0625,0 0,-19.3064 -96.5,-104.6562 -1.3125,0 z m 29.0937,40.75 26.25,29.25 -26.25,0 z"
       id="path259"
       inkscape:connector-curvature="0"
       sodipodi:nodetypes="ccccccccccccccc" />
    <path
       inkscape:connector-curvature="0"
       id="path270"
       d="m 1418.7491,3726.4106 -34.0626,43.9063 33.4688,0 34,-43.9063 -33.4062,0 z"
       style="fill:#000000;fill-opacity:1;stroke:none" />
    <path
       style="fill:#000000;fill-opacity:1;stroke:none"
       d="M 1107.9375 3781.7812 C 1073.3818 3781.9342 1045.4062 3810.0023 1045.4062 3844.5938 C 1045.4062 3879.1328 1073.2979 3907.1694 1107.7812 3907.4062 L 1112.75 3907.4062 L 1079.4688 3950.3125 L 1112.9375 3950.3125 L 1146.1562 3907.4062 L 1181 3907.4062 L 1181 3879.4062 L 1107.9375 3879.3438 C 1088.8729 3879.1914 1073.4688 3863.6944 1073.4688 3844.5938 C 1073.4688 3825.5455 1088.7888 3810.0795 1107.7812 3809.8438 L 1181 3809.8438 L 1181 3781.875 L 1107.9375 3781.7812 z "
       id="path272" />
    <path
       id="path277"
       d="m 1591.95,3782.3207 c -34.6862,0 -62.7813,28.1263 -62.7813,62.8125 0,34.6862 28.0951,62.8125 62.7813,62.8125 34.6861,0 62.8125,-28.1263 62.8125,-62.8125 0,-34.6862 -28.1264,-62.8125 -62.8125,-62.8125 z m 0,28.0625 c 19.1952,0 34.7812,15.5547 34.7812,34.75 0,19.1953 -15.586,34.75 -34.7812,34.75 -19.1953,0 -34.75,-15.5547 -34.75,-34.75 0,-19.1953 15.5547,-34.75 34.75,-34.75 z"
       style="fill:#000000;fill-opacity:1;stroke:none"
       inkscape:connector-curvature="0" />
    <g
       id="g285">
      <path
         style="fill:#000000;fill-opacity:1;stroke:none"
         d="m 1780.2991,3782.1756 0,63.4225 c -1.6017,21.1378 -15.0071,31.3017 -34.75,34.4688 -19.0797,0 -34.5642,-15.4331 -34.75,-34.4688 l 0.062,-63.4225 -28.2188,0 0,63.4225 c 0.1864,34.5268 28.3357,62.5313 62.9063,62.5313 34.5915,0 62.6596,-27.9756 62.8125,-62.5313 l 0,-63.4225 -28.0625,0 z"
         id="path279"
         sodipodi:nodetypes="cccccccsccc"
         inkscape:connector-curvature="0" />
      <path
         id="path281"
         d="m 1745.8299,3726.3395 -34.0626,43.9063 33.4688,0 34,-43.9063 -33.4062,0 z"
         style="fill:#000000;fill-opacity:1;stroke:none"
         inkscape:connector-curvature="0" />
    </g>
    <path
       style="fill:#000000;fill-opacity:1;stroke:none"
       d="M 2249.1562 3782.375 L 2249.1562 3792.9375 C 2239.2348 3786.3774 2227.345 3782.5312 2214.5625 3782.5312 C 2179.8763 3782.5312 2151.7812 3810.6575 2151.7812 3845.3438 C 2151.7812 3880.03 2179.8763 3908.1562 2214.5625 3908.1562 C 2227.3438 3908.1562 2239.2354 3904.3402 2249.1562 3897.7812 L 2249.1562 3906.5 L 2278.25 3906.5 L 2385.0312 3906.5 L 2385.0312 3877.4062 L 2278.25 3877.4062 L 2278.25 3858.9688 L 2385.0312 3858.9688 L 2385.0312 3829.9062 L 2278.25 3829.9062 L 2278.25 3811.4688 L 2385.0312 3811.4688 L 2385.0312 3782.375 L 2278.25 3782.375 L 2249.1562 3782.375 z M 2214.5625 3810.5938 C 2232.558 3810.5938 2247.3736 3824.2872 2249.1562 3841.8125 L 2249.1562 3848.9062 C 2247.3736 3866.4316 2232.558 3880.0938 2214.5625 3880.0938 C 2195.3672 3880.0938 2179.8125 3864.539 2179.8125 3845.3438 C 2179.8125 3826.1485 2195.3672 3810.5937 2214.5625 3810.5938 z "
       id="path283" />
    <g
       id="g289"
       transform="matrix(-1,0,0,1,3787.9882,0.5857864)">
      <path
         inkscape:connector-curvature="0"
         sodipodi:nodetypes="cccccccsccc"
         id="path291"
         d="m 1780.2991,3782.1756 0,63.4225 c -1.6017,21.1378 -15.0071,31.3017 -34.75,34.4688 -19.0797,0 -34.5642,-15.4331 -34.75,-34.4688 l 0.062,-63.4225 -28.2188,0 0,63.4225 c 0.1864,34.5268 28.3357,62.5313 62.9063,62.5313 34.5915,0 62.6596,-27.9756 62.8125,-62.5313 l 0,-63.4225 -28.0625,0 z"
         style="fill:#000000;fill-opacity:1;stroke:none" />
      <path
         inkscape:connector-curvature="0"
         style="fill:#000000;fill-opacity:1;stroke:none"
         d="m 1745.8299,3726.3395 -34.0626,43.9063 33.4688,0 34,-43.9063 -33.4062,0 z"
         id="path293" />
    </g>
    <path
       style="fill:#000000;fill-opacity:1;stroke:none"
       d="M 2675.9688 3782.0625 L 2675.9688 3782.0938 L 2675.5 3782.0938 L 2601.25 3865.2812 L 2601.25 3782.0938 L 2572.1562 3782.0938 L 2572.1562 3782.25 L 2519.9062 3782.25 L 2491.0312 3782.25 L 2435.875 3782.25 L 2435.875 3811.3125 L 2490.8125 3811.3125 L 2490.8125 3906.375 L 2491.0312 3906.375 L 2519.9062 3906.375 L 2520.125 3906.375 L 2520.125 3811.3125 L 2572.1562 3811.3125 L 2572.1562 3906.375 L 2600.75 3906.375 L 2602.0625 3906.375 L 2675.9688 3824.0312 L 2675.9688 3906.2812 L 2705.0625 3906.2812 L 2705.0625 3881.4375 L 2757.4688 3881.4062 L 2781.3125 3906.2812 L 2802.375 3906.2812 L 2802.375 3886.9688 L 2705.875 3782.0625 L 2704.5625 3782.0625 L 2675.9688 3782.0625 z M 2705.0625 3823.0625 L 2731.3125 3852.3125 L 2705.0625 3852.3125 L 2705.0625 3823.0625 z "
       id="path298" />
    <path
       sodipodi:nodetypes="ccccc"
       inkscape:connector-curvature="0"
       id="path305"
       d="m 1681.9292,3697.5879 33.6241,0 0,-29.1477 -33.6241,0.056 0,29.0915 z"
       style="fill:#000000;fill-opacity:1;stroke:none" />
    <path
       inkscape:connector-curvature="0"
       sodipodi:nodetypes="cccccccsccc"
       id="path307"
       d="m 1921.5774,3781.6665 0,63.4225 c -1.6017,21.1378 -15.0071,31.3017 -34.75,34.4688 -19.0797,0 -34.5642,-15.4331 -34.75,-34.4688 l 0.062,-63.4225 -28.2188,0 0,63.4225 c 0.1864,34.5268 28.3357,62.5313 62.9063,62.5313 34.5915,0 62.6596,-27.9756 62.8125,-62.5313 l 0,-63.4225 -28.0625,0 z"
       style="fill:#000000;fill-opacity:1;stroke:none" />
    <g
       id="g313"
       transform="translate(58.152883,-185.38331)">
      <path
         sodipodi:nodetypes="ccccc"
         inkscape:connector-curvature="0"
         id="path309"
         d="m 1782.3384,3955.6819 33.6241,0 0,-29.1477 -33.6241,0.056 0,29.0915 z"
         style="fill:#000000;fill-opacity:1;stroke:none" />
      <path
         style="fill:#000000;fill-opacity:1;stroke:none"
         d="m 1841.2917,3955.6819 33.6241,0 0,-29.1477 -33.6241,0.056 0,29.0915 z"
         id="path311"
         inkscape:connector-curvature="0"
         sodipodi:nodetypes="ccccc" />
    </g>
    <g
       id="g1141">
      <rect
         y="4054.7375"
         x="1499.0664"
         height="348.96759"
         width="1245.9221"
         id="rect362"
         style="fill:#e6e6e6;fill-opacity:1;fill-rule:nonzero;stroke:none" />
      <g
         transform="translate(3.8243158,0)"
         style="fill:#000000"
         id="g1132">
        <path
           inkscape:connector-curvature="0"
           style="fill:#000000;fill-opacity:1;stroke:none"
           d="m 1599.125,4103.0625 c -34.6862,0 -62.7812,28.1263 -62.7812,62.8125 0,34.6862 28.095,62.8125 62.7812,62.8125 9.8809,0 19.2448,-2.2775 27.5625,-6.3437 l 40.8437,45.5 1.0313,0 0,22.5312 c 0.1864,34.5268 28.3357,62.5313 62.9063,62.5312 34.5914,0 62.6595,-27.9755 62.8124,-62.5312 l 0,-57.3438 0.9063,0 106.7813,0 0,-29.0937 -106.7813,0 0,-18.4375 106.7813,0 0,-29.0625 -106.7813,0 0,-18.4375 106.7813,0 0,-29.0938 -106.7813,0 -29.0937,0 0,124.125 0.125,0 0,57.3438 c -1.6017,21.1378 -15.0071,31.3017 -34.75,34.4688 -19.0798,0 -34.5642,-15.4331 -34.75,-34.4688 l 0.062,-63.4375 -28.2187,0 0,0.094 -20.0937,-22.2812 c 8.434,-10.6929 13.4687,-24.2015 13.4687,-38.875 0,-34.6862 -28.1264,-62.8125 -62.8125,-62.8125 z m 0,28.0625 c 19.1952,0 34.7813,15.5547 34.7812,34.75 0,6.3669 -1.7263,12.3377 -4.7187,17.4688 l -35.0937,-38.9376 -1.3126,0 0.5,40.75 13.1876,14.6876 c -2.3633,0.5068 -4.8298,0.7812 -7.3438,0.7812 -19.1953,0 -34.75,-15.5547 -34.75,-34.75 0,-19.1953 15.5547,-34.75 34.75,-34.75 z"
           id="path317" />
        <path
           inkscape:connector-curvature="0"
           style="fill:#000000;fill-opacity:1;stroke:none"
           d="m 2653,4108.3438 -51.0625,0.062 0.031,30.0938 51.0624,0 c 10.3088,0.542 16.964,7.3449 17,16.9375 0.036,9.5926 -7.6269,17.0312 -17.0312,17.0313 l -17.0625,0.062 -33.5625,29.9376 -0.062,0 0,108.625 29.1563,0 -0.063,-108.5938 21.625,0 c 25.986,-0.017 47.0313,-21.0724 47.0313,-47.0625 0,-26.0003 -21.0624,-47.0938 -47.0625,-47.0937 z m -21.4688,214.875 -29.375,0.062 0,29.0938 29.375,0 0,-29.1562 z"
           id="path325" />
        <path
           id="path323"
           d="m 1959.3331,4108.405 0,124.125 29.0937,0 0,-47.5 106.7813,0 0,-29.0939 -106.7813,0 0,-18.4374 106.7813,0 0,-29.0938 z"
           style="fill:#000000;fill-opacity:1;stroke:none"
           inkscape:connector-curvature="0"
           sodipodi:nodetypes="ccccccccccc" />
        <path
           sodipodi:nodetypes="cccccc"
           inkscape:connector-curvature="0"
           id="path327"
           d="m 2270.0136,4232.3836 0,-124.1241 -29.1477,0 0.056,124.1241 29.0915,0 z"
           style="fill:#000000;fill-opacity:1;stroke:none" />
        <path
           style="fill:#000000;fill-opacity:1;stroke:none"
           d="m 2107.3187,4108.3423 0,123.9375 29.0937,0 0,-24.8125 52.4063,-0.031 23.8437,24.8437 21.0625,0 0,-19.2813 -96.5,-104.6562 -1.3125,0 z m 29.0937,40.75 26.25,29.25 -26.25,0 z"
           id="path329"
           inkscape:connector-curvature="0"
           sodipodi:nodetypes="ccccccccccccccc" />
        <path
           inkscape:connector-curvature="0"
           style="fill:#000000;fill-opacity:1;stroke:none"
           d="m 2281.159,4108.4229 0,124.0595 29.1562,0 0,-29.872 41.8126,0 24.1562,29.872 33.4688,0 -27.875,-34.5907 c 15.6966,-7.6273 26.5,-23.7442 26.5,-42.375 0,-26.0004 -21.0621,-47.0938 -47.0625,-47.0938 l -51.0626,0.062 0,-0.062 z m 29.0937,30.1563 51.0938,0 c 10.3088,0.5421 15.4335,7.2178 17,16.9375 0,9.4045 -7.6268,17.0313 -17.0312,17.0313 l -51.0313,0.062 -0.031,-34.0312 z"
           id="path331"
           sodipodi:nodetypes="ccccccccsccccccccccc" />
        <path
           inkscape:connector-curvature="0"
           style="fill:#000000;fill-opacity:1;stroke:none"
           d="m 2417.1065,4107.905 0,124.125 29.0937,0 106.7813,0 0,-29.0938 -106.7813,0 0,-18.4375 106.7813,0 0,-29.0625 -106.7813,0 0,-18.4375 106.7813,0 0,-29.0937 -106.7813,0 z"
           id="path333"
           sodipodi:nodetypes="ccccccccccccccc" />
      </g>
    </g>
    <rect
       style="fill:#00ff00;fill-opacity:1;fill-rule:nonzero;stroke:none"
       id="rect352"
       width="126"
       height="12"
       x="3052.5"
       y="3881.6123" />
    <g
       id="g1152"
       transform="matrix(0.40130919,0,0,0.40130919,815.45289,3275.6823)"
       inkscape:export-filename="/Users/fadebiaye/Desktop/faber.png"
       inkscape:export-xdpi="150"
       inkscape:export-ydpi="150">
      <rect
         style="fill:#e6e6e6;fill-opacity:1;fill-rule:nonzero;stroke:none"
         id="rect1154"
         width="1245.9221"
         height="348.96759"
         x="1499.0664"
         y="4054.7375" />
      <g
         id="g1156"
         style="fill:#000000"
         transform="translate(3.8243158,0)">
        <path
           id="path1158"
           d="m 1599.125,4103.0625 c -34.6862,0 -62.7812,28.1263 -62.7812,62.8125 0,34.6862 28.095,62.8125 62.7812,62.8125 9.8809,0 19.2448,-2.2775 27.5625,-6.3437 l 40.8437,45.5 1.0313,0 0,22.5312 c 0.1864,34.5268 28.3357,62.5313 62.9063,62.5312 34.5914,0 62.6595,-27.9755 62.8124,-62.5312 l 0,-57.3438 0.9063,0 106.7813,0 0,-29.0937 -106.7813,0 0,-18.4375 106.7813,0 0,-29.0625 -106.7813,0 0,-18.4375 106.7813,0 0,-29.0938 -106.7813,0 -29.0937,0 0,124.125 0.125,0 0,57.3438 c -1.6017,21.1378 -15.0071,31.3017 -34.75,34.4688 -19.0798,0 -34.5642,-15.4331 -34.75,-34.4688 l 0.062,-63.4375 -28.2187,0 0,0.094 -20.0937,-22.2812 c 8.434,-10.6929 13.4687,-24.2015 13.4687,-38.875 0,-34.6862 -28.1264,-62.8125 -62.8125,-62.8125 z m 0,28.0625 c 19.1952,0 34.7813,15.5547 34.7812,34.75 0,6.3669 -1.7263,12.3377 -4.7187,17.4688 l -35.0937,-38.9376 -1.3126,0 0.5,40.75 13.1876,14.6876 c -2.3633,0.5068 -4.8298,0.7812 -7.3438,0.7812 -19.1953,0 -34.75,-15.5547 -34.75,-34.75 0,-19.1953 15.5547,-34.75 34.75,-34.75 z"
           style="fill:#000000;fill-opacity:1;stroke:none"
           inkscape:connector-curvature="0" />
        <path
           id="path1160"
           d="m 2653,4108.3438 -51.0625,0.062 0.031,30.0938 51.0624,0 c 10.3088,0.542 16.964,7.3449 17,16.9375 0.036,9.5926 -7.6269,17.0312 -17.0312,17.0313 l -17.0625,0.062 -33.5625,29.9376 -0.062,0 0,108.625 29.1563,0 -0.063,-108.5938 21.625,0 c 25.986,-0.017 47.0313,-21.0724 47.0313,-47.0625 0,-26.0003 -21.0624,-47.0938 -47.0625,-47.0937 z m -21.4688,214.875 -29.375,0.062 0,29.0938 29.375,0 0,-29.1562 z"
           style="fill:#000000;fill-opacity:1;stroke:none"
           inkscape:connector-curvature="0" />
        <path
           sodipodi:nodetypes="ccccccccccc"
           inkscape:connector-curvature="0"
           style="fill:#000000;fill-opacity:1;stroke:none"
           d="m 1959.3331,4108.405 0,124.125 29.0937,0 0,-47.5 106.7813,0 0,-29.0939 -106.7813,0 0,-18.4374 106.7813,0 0,-29.0938 z"
           id="path1162" />
        <path
           style="fill:#000000;fill-opacity:1;stroke:none"
           d="m 2270.0136,4232.3836 0,-124.1241 -29.1477,0 0.056,124.1241 29.0915,0 z"
           id="path1164"
           inkscape:connector-curvature="0"
           sodipodi:nodetypes="cccccc" />
        <path
           sodipodi:nodetypes="ccccccccccccccc"
           inkscape:connector-curvature="0"
           id="path1166"
           d="m 2107.3187,4108.3423 0,123.9375 29.0937,0 0,-24.8125 52.4063,-0.031 23.8437,24.8437 21.0625,0 0,-19.2813 -96.5,-104.6562 -1.3125,0 z m 29.0937,40.75 26.25,29.25 -26.25,0 z"
           style="fill:#000000;fill-opacity:1;stroke:none" />
        <path
           sodipodi:nodetypes="ccccccccsccccccccccc"
           id="path1168"
           d="m 2281.159,4108.4229 0,124.0595 29.1562,0 0,-29.872 41.8126,0 24.1562,29.872 33.4688,0 -27.875,-34.5907 c 15.6966,-7.6273 26.5,-23.7442 26.5,-42.375 0,-26.0004 -21.0621,-47.0938 -47.0625,-47.0938 l -51.0626,0.062 0,-0.062 z m 29.0937,30.1563 51.0938,0 c 10.3088,0.5421 15.4335,7.2178 17,16.9375 0,9.4045 -7.6268,17.0313 -17.0312,17.0313 l -51.0313,0.062 -0.031,-34.0312 z"
           style="fill:#000000;fill-opacity:1;stroke:none"
           inkscape:connector-curvature="0" />
        <path
           sodipodi:nodetypes="ccccccccccccccc"
           id="path1170"
           d="m 2417.1065,4107.905 0,124.125 29.0937,0 106.7813,0 0,-29.0938 -106.7813,0 0,-18.4375 106.7813,0 0,-29.0625 -106.7813,0 0,-18.4375 106.7813,0 0,-29.0937 -106.7813,0 z"
           style="fill:#000000;fill-opacity:1;stroke:none"
           inkscape:connector-curvature="0" />
      </g>
    </g>
    <path
       inkscape:connector-curvature="0"
       id="path1172"
       d="m 2142.658,3594.3774 69.9198,-116.6623 -38.75,0 -70.4822,116.6623 z"
       style="fill:#000000;fill-opacity:1;stroke:none"
       sodipodi:nodetypes="ccccc" />
    <path
       sodipodi:nodetypes="ccccc"
       style="fill:#000000;fill-opacity:1;stroke:none"
       d="m 2173.2654,3594.3774 -69.9198,-116.6623 38.75,0 70.4822,116.6623 z"
       id="path1174"
       inkscape:connector-curvature="0" />
    <path
       style="fill:#000000;fill-opacity:1;stroke:none"
       d="m 1985.6076,3477.7333 35.0937,58.5624 -35.0937,58.0938 39.3125,0 15.3125,-25.5312 15.2813,25.5312 39.3124,0 -35.0937,-58.0938 35.0937,-58.5624 -38.75,0 -15.8437,26.25 -15.875,-26.25 -38.75,0 z"
       id="path1176"
       inkscape:connector-curvature="0" />
    <path
       style="fill:#000000;fill-opacity:1;stroke:none"
       d="m 2227.3438,3478.2188 35.0937,58.5624 -35.0937,58.0938 39.3124,0 69.9063,-116.6562 -38.75,0 -15.875,26.25 -15.8437,-26.25 z"
       id="path1181"
       inkscape:connector-curvature="0"
       sodipodi:nodetypes="ccccccccc" />
    <path
       sodipodi:nodetypes="ccccccccc"
       inkscape:connector-curvature="0"
       id="path1186"
       d="m 2384.0625,3594.875 -35.0937,-58.5624 35.0937,-58.0938 -39.3124,0 -69.9063,116.6562 38.75,0 15.875,-26.25 15.8437,26.25 z"
       style="fill:#000000;fill-opacity:1;stroke:none" />
  </g>
</svg>
